<?xml version="1.0" encoding="utf-8"?>
<svg id="master-artboard" viewBox="0 0 460 460" version="1.0" xmlns="http://www.w3.org/2000/svg" x="0px" y="0px" width="460px" height="460px" enable-background="new 0 0 1400 980"><rect id="ee-background" x="0" y="0" width="460" height="460" style="fill: white; fill-opacity: 0; pointer-events: none;"/>
<metadata>
	<sfw>
		<slices/>
		<slicesourcebounds height="883.218" width="1265.103" y="-931.609" x="67.449" bottomleftorigin="true"/>
	</sfw>
</metadata>




<path fill="#FFFFFF" d="M548.234,273.782c-0.704,0-1.292,0.354-1.76,0.941c-0.235,0.352-0.469,0.822-0.469,1.293&#10;&#9;&#9;c0,1.291,1.056,2.23,2.229,2.23c0.94,0,1.762-0.47,1.997-1.291c0.237-0.234,0.237-0.587,0.237-0.939&#10;&#9;&#9;C550.468,274.84,549.409,273.782,548.234,273.782L548.234,273.782z" transform="matrix(0.9999999999999999, 0, 0, 0.9999999999999999, -203.70925407965208, -128.47573741691784)"/><path fill="#FFFFFF" d="M535.195,371.277c-0.352,0-0.705,0.235-0.822,0.47c-0.586,0.823-0.704,1.88-0.704,2.936&#10;&#9;&#9;c-0.117,1.293,0,2.586,0.234,3.876c0.117,0.941,0.469,2.115,0.352,3.173c0.587-0.234,1.057-0.353,1.528-0.589&#10;&#9;&#9;c0.118,0,0.235,0,0.352-0.117l0,0l0,0l0,0l0,0l0,0c0.117,0,0.235-0.118,0.235-0.118c0.352-0.117,0.704-0.234,0.94-0.469&#10;&#9;&#9;c0.235-0.118,0.587-0.235,0.822-0.47c0,0,0.234-0.117,0.234-0.234l0,0l0,0h0.117c0.117-0.117,0.352-0.469,0.469-0.469l0,0&#10;&#9;&#9;c0-0.237,0.117-0.354,0.235-0.471c0-0.118,0.117-0.118,0.117-0.235c0,0,0,0,0-0.117c-1.056-1.173-1.643-2.936-2.349-4.111&#10;&#9;&#9;C536.371,373.274,535.784,372.333,535.195,371.277L535.195,371.277z" transform="matrix(0.9999999999999999, 0, 0, 0.9999999999999999, -203.70925407965208, -128.47573741691784)"/><path fill="#FFFFFF" d="M528.737,379.029c-0.588-0.47-1.058-0.704-1.528-0.234c-0.706,0.706-0.94,1.879-1.175,2.82&#10;&#9;&#9;c-0.117,0.469-0.117,1.056-0.234,1.525l0,0c0.469,0,0.94,0,1.41-0.117c0.235,0,0.47,0,0.705,0c0.118-0.117,0.118-0.117,0.235-0.117&#10;&#9;&#9;l0,0c0,0,0,0,0.117,0c1.058-0.118,2.114-0.353,3.172-0.587c-0.117-0.117-0.117-0.352-0.235-0.704&#10;&#9;&#9;C530.498,380.791,529.675,379.852,528.737,379.029L528.737,379.029z" transform="matrix(0.9999999999999999, 0, 0, 0.9999999999999999, -203.70925407965208, -128.47573741691784)"/><path fill="#FFFFFF" d="M510.412,390.189c-1.528-1.879-2.819-3.759-4.112-5.874c-0.469,0.704-1.056,1.41-1.291,2.114&#10;&#9;&#9;c-0.472,1.173-0.707,2.349-0.589,3.524c0,1.409,0.237,2.701,0.707,3.875c0.234,0.94,0.822,1.762,1.291,2.584&#10;&#9;&#9;c0.12,0,0.237-0.117,0.237-0.117c0.469,0,0.822-0.118,1.174-0.235c0.587-0.117,1.173-0.234,1.762-0.469&#10;&#9;&#9;c-0.118,0,0.587-0.353,0.704-0.47c0.118,0,0.824-0.469,0.587-0.234c0.354-0.352,0.823-0.706,1.175-1.176l0,0&#10;&#9;&#9;c0,0,0-0.117,0.117-0.117c0-0.117,0.118-0.235,0.235-0.352c0.117-0.234,0.117-0.117,0.234-0.587l0,0&#10;&#9;&#9;C511.821,391.95,511.118,391.011,510.412,390.189L510.412,390.189z" transform="matrix(0.9999999999999999, 0, 0, 0.9999999999999999, -203.70925407965208, -128.47573741691784)"/><path fill="#FFFFFF" d="M498.666,393.712c-1.293,0-1.88,1.176-2.232,2.466c1.293,0.235,2.701,0.353,3.994,0.353&#10;&#9;&#9;c0.821,0.117,1.525,0.117,2.349,0.117C501.602,395.239,500.311,393.712,498.666,393.712L498.666,393.712z" transform="matrix(0.9999999999999999, 0, 0, 0.9999999999999999, -203.70925407965208, -128.47573741691784)"/><path fill="#FFFFFF" d="M480.225,496.609c-0.354-1.526-0.707-2.938-1.058-4.464c-0.352,0.822-0.704,1.878-0.941,2.586&#10;&#9;&#9;c-0.47,1.643-0.939,3.285-1.174,4.933c-0.235,1.878,0.353,3.994,0.704,5.988c0.824-0.234,1.645-0.469,2.469-0.82&#10;&#9;&#9;c0.235-0.118,0.47-0.118,0.705-0.235l0,0c0,0,0.469-0.234,0.586-0.234c0.117-0.117,0.352-0.352,0.469-0.352&#10;&#9;&#9;c-0.235-1.062-0.469-2-0.704-3.056C480.93,499.547,480.578,498.017,480.225,496.609L480.225,496.609z" transform="matrix(0.9999999999999999, 0, 0, 0.9999999999999999, -203.70925407965208, -128.47573741691784)"/><path fill="#FFFFFF" d="M474.117,504.011c0-0.117-0.118-0.234-0.118-0.353c-0.823-1.061-1.763-2.351-3.055-2.82&#10;&#9;&#9;c-1.409-0.47-2.467,0.234-3.171,1.408c-0.587,0.942-0.941,1.999-1.059,3.055c-0.117,0.352-0.117,0.705-0.117,1.057&#10;&#9;&#9;c1.411,0,2.938,0,4.464,0c1.292-0.117,2.466-0.117,3.524-0.234C474.351,505.418,474.234,504.714,474.117,504.011L474.117,504.011&#10;&#9;&#9;L474.117,504.011z" transform="matrix(0.9999999999999999, 0, 0, 0.9999999999999999, -203.70925407965208, -128.47573741691784)"/><path fill="#FFFFFF" d="M452.151,515.402c-0.237-0.471-0.471-1.057-0.706-1.526c-0.586-1.761-1.173-3.406-1.643-5.167&#10;&#9;&#9;c-0.471-0.234-0.706-0.588-0.94-0.822c-0.117,0.117-0.586,0.705-0.704,1.057c-0.235,0.704-0.47,1.407-0.706,2.229&#10;&#9;&#9;c-0.47,1.412-0.822,2.938-0.939,4.464c-0.235,1.412,0.352,3.29,0.586,4.934c1.176-0.235,2.349-0.471,3.525-0.822&#10;&#9;&#9;c0.352,0,0.704-0.117,0.938-0.353c0.234,0,0.352,0,0.471-0.117l0,0l0,0c0,0,0,0,0.117,0c0.117-0.117,0.353-0.234,0.587-0.352&#10;&#9;&#9;c0.118-0.117,0.118-0.117,0.118-0.117s0.117,0,0.117-0.118c0.118-0.117,0.235-0.234,0.353-0.352l0,0v-0.118l0,0&#10;&#9;&#9;c0.117,0,0.117-0.116,0.117-0.116c0-0.118,0.117-0.354,0.117-0.471c-0.117-0.234-0.234-0.352-0.352-0.586&#10;&#9;&#9;C452.855,516.462,452.386,515.988,452.151,515.402L452.151,515.402z" transform="matrix(0.9999999999999999, 0, 0, 0.9999999999999999, -203.70925407965208, -128.47573741691784)"/><path fill="#FFFFFF" d="M442.988,518.457c-0.353-0.235-0.587-0.587-0.939-0.822c-0.117,0-0.117,0-0.235-0.117v0.117&#10;&#9;&#9;c-1.056,0.353-1.527,1.878-1.997,3.29c0.353,0,0.587,0,0.941,0c1.056-0.116,2.112-0.116,3.288-0.116&#10;&#9;&#9;c-0.234-0.592-0.352-1.061-0.469-1.647C443.342,518.927,443.105,518.691,442.988,518.457L442.988,518.457z" transform="matrix(0.9999999999999999, 0, 0, 0.9999999999999999, -203.70925407965208, -128.47573741691784)"/><path fill="#6C4C46" d="M540.013,227.385c-0.706-2.583-1.762-5.167-2.701-7.634c-2.116-4.933-4.346-9.868-6.226-14.918&#10;&#9;&#9;c-1.997-4.933-3.407-9.985-3.759-15.388c-0.235-2.583-0.235-5.167-0.235-7.871c0.117-2.584,0.117-5.285,0.352-7.869&#10;&#9;&#9;c0-0.117,0-0.117,0-0.117c-0.117,0.822-0.235,1.645-0.352,2.349c-0.706,5.05-1.762,9.983-2.701,14.918&#10;&#9;&#9;c-0.235,1.174-0.472,2.349-0.706,3.64c-2.232,12.569-2.349,26.077,3.642,37.824c0.117,0.235,0.235,0.352,0.235,0.587&#10;&#9;&#9;c0.352,0.117,0.704,0.117,1.058,0.234c4.109,0.704,7.869,1.997,11.628,3.76c0-0.117,0-0.235,0-0.353&#10;&#9;&#9;c0.353-1.41,0.822-2.938,1.173-4.346c0-0.117,0-0.354,0-0.471C541.069,230.206,540.482,228.795,540.013,227.385L540.013,227.385z" transform="matrix(0.9999999999999999, 0, 0, 0.9999999999999999, -203.70925407965208, -128.47573741691784)"/><path fill="#6C4C46" d="M533.67,334.394c0-0.47-0.117-0.939-0.117-1.409c-1.528,0-2.938,0-4.347-0.12c0,0.354-0.117,0.589,0,0.941&#10;&#9;&#9;c0,1.291,0,2.467-0.117,3.759c0,2.584-0.117,5.168-0.469,7.751c-0.117,1.176-0.237,2.232-0.471,3.29&#10;&#9;&#9;c0.117,0,0.117,0.118,0.234,0.235c0.471,0.704,0.706,1.526,1.058,2.349c0.47,1.056,0.939,2.115,1.409,3.171&#10;&#9;&#9;c0.471,0.94,1.058,1.997,1.527,2.938c0.117-0.823,0.352-1.527,0.471-2.349c0.587-2.703,0.939-5.521,1.056-8.223&#10;&#9;&#9;c0.235-2.82,0.235-5.522,0.117-8.34C533.904,337.095,533.787,335.687,533.67,334.394L533.67,334.394z" transform="matrix(0.9999999999999999, 0, 0, 0.9999999999999999, -203.70925407965208, -128.47573741691784)"/><path fill="#6C4C46" d="M515.933,387.838c-0.234,0.706-0.352,1.41-0.706,1.997c0.354,0.354,0.706,0.706,0.941,1.175&#10;&#9;&#9;c0.704,1.174,0.234,2.349-0.705,2.584c0,0.47-0.117,0.824-0.236,1.293c-0.469,1.409-1.291,2.466-2.467,3.288&#10;&#9;&#9;c-1.525,1.175-3.288,1.762-5.167,2.114c-1.293,3.995-3.056,7.872-4.815,11.631c-5.287,11.159-11.748,21.731-19.381,31.361&#10;&#9;&#9;c-0.235,0.939-0.352,1.76-0.587,2.7c0.47-0.587,0.822-1.174,1.291-1.76c1.88-2.699,3.877-5.402,5.874-8.105&#10;&#9;&#9;c3.877-5.285,7.753-10.571,11.394-16.092c3.642-5.402,7.282-10.924,10.572-16.561c1.762-2.938,3.524-5.874,5.167-8.81&#10;&#9;&#9;c1.176-2.232,2.231-4.463,3.408-6.578c-0.941,0-1.997-0.118-2.938-0.118C516.989,387.958,516.402,387.838,515.933,387.838&#10;&#9;&#9;L515.933,387.838z" transform="matrix(0.9999999999999999, 0, 0, 0.9999999999999999, -203.70925407965208, -128.47573741691784)"/><path fill="#6C4C46" d="M490.091,349.077c1.762-2.114,3.525-4.346,5.05-6.695c4.229-6.108,7.519-12.921,9.75-19.968&#10;&#9;&#9;c5.872-18.208,6.226-40.291-5.991-56.148c-4.463-5.874-10.572-10.455-17.267-13.391c-0.704,0.47-1.291,0-1.528-0.586&#10;&#9;&#9;c-2.114-0.824-4.346-1.528-6.578-1.998c1.762,1.644,3.524,3.288,5.17,5.05c4.581,4.815,8.81,10.103,11.746,15.975&#10;&#9;&#9;c3.055,5.991,5.167,12.452,5.991,19.029c1.88,13.156-0.352,26.312-5.756,38.294c-5.167,11.159-12.803,21.611-22.2,29.6&#10;&#9;&#9;c-4.463,3.877-9.396,7.399-14.801,9.868c-2.701,1.173-5.52,2.349-8.456,2.936c-1.176,0.353-2.351,0.47-3.642,0.704&#10;&#9;&#9;c3.405,0.941,6.813,1.762,10.335,2.115c2.586,0.235,5.287,0.352,7.753-0.235c1.176-0.235,2.349-0.587,3.525-0.939&#10;&#9;&#9;c1.877-1.997,4.228-3.524,6.46-5.17c2.349-1.762,4.815-3.64,7.165-5.52C481.633,358.122,486.097,353.893,490.091,349.077&#10;&#9;&#9;L490.091,349.077z" transform="matrix(0.9999999999999999, 0, 0, 0.9999999999999999, -203.70925407965208, -128.47573741691784)"/><path fill="#6C4C46" d="M462.017,186.392c0.941,2.349,1.998,4.815,3.054,7.165c1.999,4.816,4.111,9.514,6.462,14.212&#10;&#9;&#9;c4.698,8.927,10.101,17.502,17.148,24.669c-1.291-2.469-2.584-5.053-3.64-7.636c-1.997-4.581-3.173-9.279-3.994-14.095&#10;&#9;&#9;c-0.117-0.94-0.235-1.997-0.352-3.055c0,0,0-0.118,0-0.235c-0.235-0.234-0.589-0.469-0.824-0.704&#10;&#9;&#9;c-1.173-1.176-2.232-2.467-3.171-3.877c-1.762-2.818-3.29-5.871-5.05-8.692c-1.88-2.819-3.994-5.402-6.108-7.869&#10;&#9;&#9;c-1.528-1.645-2.819-3.408-3.995-5.17c-0.704-0.117-1.293-0.352-1.997-0.587c0.704,1.293,1.174,2.702,1.763,3.995&#10;&#9;&#9;C461.547,185.099,461.782,185.803,462.017,186.392L462.017,186.392z" transform="matrix(0.9999999999999999, 0, 0, 0.9999999999999999, -203.70925407965208, -128.47573741691784)"/><path fill="#6C4C46" d="M440.169,375.037c-4.581-1.41-8.927-3.055-13.273-5.052c-1.292-0.469-2.466-1.056-3.759-1.643&#10;&#9;&#9;c-3.875,1.291-7.869,1.995-12.098,1.995c-2.466-0.118-4.815-0.587-7.165-1.291c-2.349-0.822-4.583-2.115-6.93-3.291&#10;&#9;&#9;c-0.236-0.117-0.471-0.117-0.588,0c0.706,0.589,1.41,1.059,2.115,1.528c2.466,1.763,5.167,3.525,7.871,5.169&#10;&#9;&#9;c8.105,4.816,16.796,8.69,26.194,10.218c5.754,0.941,11.862,1.176,17.502-0.704c2.936-0.941,5.637-2.232,8.223-3.877&#10;&#9;&#9;c0.469-0.352,1.056-0.704,1.643-1.173c-1.643,0.352-3.288,0.586-4.816,0.586C450.037,377.738,444.984,376.445,440.169,375.037&#10;&#9;&#9;L440.169,375.037z" transform="matrix(0.9999999999999999, 0, 0, 0.9999999999999999, -203.70925407965208, -128.47573741691784)"/><path fill="#6C4C46" d="M427.836,385.489c-1.175-0.235-2.351-0.587-3.407-0.939c-3.876,3.288-9.631,3.76-14.566,3.994&#10;&#9;&#9;c-3.17,0.117-6.343-0.117-9.396-0.706c-2.349-0.353-4.933-0.821-7.047-1.995c-0.353-0.117-0.705,0.117-0.705,0.469&#10;&#9;&#9;c1.174,0.705,2.467,1.408,3.757,1.998c1.41,0.821,2.818,1.525,4.347,2.231c8.574,4.111,17.854,7.282,27.37,7.517&#10;&#9;&#9;c0.469-0.235,1.173-0.235,1.643,0c4.581,0,9.516-0.821,13.51-3.288c2.231-1.292,4.109-3.055,5.754-5.169&#10;&#9;&#9;c1.059-1.291,1.88-2.701,2.818-4.229c-3.639,1.176-7.517,1.879-11.511,1.762C436.175,387.134,431.948,386.548,427.836,385.489&#10;&#9;&#9;L427.836,385.489z" transform="matrix(0.9999999999999999, 0, 0, 0.9999999999999999, -203.70925407965208, -128.47573741691784)"/><path fill="#6C4C46" d="M444.397,439.405c-1.173-2.82-2.818-5.52-3.64-8.457c-0.823,0.469-1.763,0.821-2.585,0.821&#10;&#9;&#9;c-0.587,0.352-1.292,0.587-1.998,0.938c0.472,0.474,0.823,1.061,1.058,1.647c0.704,1.291,1.291,2.582,1.645,3.994&#10;&#9;&#9;c0.938,2.817,1.525,5.873,1.644,8.81c0.117,6.107-1.057,12.1-3.523,17.502c-4.698,10.805-14.097,18.323-24.669,22.904&#10;&#9;&#9;c-5.285,2.234-10.804,3.994-16.443,5.167c-2.466,0.588-5.05,0.939-7.517,1.175c5.402,0.825,10.921,0.708,16.326-0.118&#10;&#9;&#9;c1.176-0.234,2.349-0.469,3.525-0.704c0-0.116,0.117-0.353,0.352-0.47c0.586-0.586,1.173-0.469,1.645,0&#10;&#9;&#9;c3.757-0.938,7.399-2.112,10.922-3.758c10.337-4.815,21.026-13.038,25.021-24.313c1.762-5.285,2.115-10.926,0.938-16.329&#10;&#9;&#9;C446.512,445.159,445.573,442.226,444.397,439.405L444.397,439.405z" transform="matrix(0.9999999999999999, 0, 0, 0.9999999999999999, -203.70925407965208, -128.47573741691784)"/><path fill="#6C4C46" d="M404.93,412.272c5.992,1.878,12.452,3.875,18.913,4.581c3.17,0.352,6.343,0.469,9.514,0.118&#10;&#9;&#9;c4.229-0.469,8.457-1.88,11.275-5.287c1.646-2.115,2.467-4.698,2.467-7.399c0.117-2.583-0.235-5.05-0.469-7.517&#10;&#9;&#9;c-3.17,2.232-6.813,3.64-10.806,4.346c-1.763,0.235-3.641,0.353-5.403,0.47c-1.176,0-2.349,0-3.408-0.117&#10;&#9;&#9;c-0.117,0.469-0.352,0.938-0.586,1.291c-0.586,1.058-1.41,1.997-2.466,2.701c-2.584,1.762-5.756,2.586-8.81,3.172&#10;&#9;&#9;c-3.408,0.587-6.813,0.705-10.103,0.822c-1.528,0-3.054,0-4.581,0c-0.939,0-2.231-0.234-3.288,0.117&#10;&#9;&#9;c2.466,0.941,4.933,1.763,7.399,2.586C404.695,412.155,404.813,412.155,404.93,412.272L404.93,412.272z" transform="matrix(0.9999999999999999, 0, 0, 0.9999999999999999, -203.70925407965208, -128.47573741691784)"/><path fill="#6C4C46" d="M397.413,429.54c2.349,0.469,4.698,0.821,7.048,1.173c4.463,0.588,8.927,0.939,13.391,1.057&#10;&#9;&#9;c3.524,0.118,7.047,0,10.572-0.704c1.762-0.353,3.524-0.705,5.285-1.292c1.645-0.586,3.172-1.291,4.933-1.529&#10;&#9;&#9;c0.236,0,0.354,0,0.588,0c0.235-0.117,0.469-0.353,0.586-0.47c1.176-1.056,2.232-2.113,3.054-3.403&#10;&#9;&#9;c0.824-1.413,1.527-2.82,1.879-4.466c0.235-1.173,0.118-2.349,0.118-3.522c-2.466,1.877-5.402,3.17-8.575,3.756&#10;&#9;&#9;c-3.875,0.707-7.751,0.707-11.746,0.235c-1.056-0.117-2.232-0.353-3.407-0.47c-0.352,0.47-0.705,0.824-1.057,1.293&#10;&#9;&#9;c-1.056,1.173-2.231,2.232-3.642,3.056c-2.936,1.877-6.341,2.816-9.866,3.403c-5.639,0.943-11.748,0.943-17.619,0.117&#10;&#9;&#9;C391.774,428.483,394.593,429.07,397.413,429.54L397.413,429.54z" transform="matrix(0.9999999999999999, 0, 0, 0.9999999999999999, -203.70925407965208, -128.47573741691784)"/><path fill="#7C5D55" d="M371.923,342.03c3.525,5.05,7.871,9.514,12.334,13.743c3.757,3.525,7.869,6.93,12.098,9.983&#10;&#9;&#9;c0.117-0.117,0.352-0.117,0.588,0c2.347,1.176,4.581,2.469,6.93,3.291c2.35,0.704,4.699,1.173,7.165,1.291&#10;&#9;&#9;c4.229,0,8.223-0.704,12.098-1.995c-3.875-1.997-7.752-4.111-11.511-6.578c-11.041-7.167-21.496-15.977-29.717-26.312&#10;&#9;&#9;c-6.226-7.988-12.217-16.915-14.331-26.783c-0.118,0.117-0.118,0.235-0.118,0.352c-1.29,3.524-2.231,7.167-2.466,10.809&#10;&#9;&#9;c-0.117,2.23-0.117,4.347,0.235,6.458C366.169,332.044,368.636,337.332,371.923,342.03L371.923,342.03z" transform="matrix(0.9999999999999999, 0, 0, 0.9999999999999999, -203.70925407965208, -128.47573741691784)"/><path fill="#7C5D55" d="M433.474,433.534c-2.114,0.586-4.112,1.056-6.226,1.29c-1.173,0.235-2.466,0.352-3.64,0.352&#10;&#9;&#9;c0.235,4.464-0.588,8.693-2.586,12.687c-1.995,4.111-5.05,7.636-8.456,10.688c-3.524,3.055-7.519,5.641-11.747,7.753&#10;&#9;&#9;c-4.229,2.234-8.811,3.994-13.509,5.05c-11.041,2.586-22.552,0.235-31.596-6.693c-4.7-3.642-8.692-8.105-11.865-13.155&#10;&#9;&#9;c-1.409-2.117-2.584-4.464-3.64-6.815c0.705,3.995,1.76,7.871,3.171,11.631c0.823,2.229,1.762,4.581,2.818,6.811&#10;&#9;&#9;c0.352,0.235,0.469,0.591,0.469,0.943c0.354,0.586,0.706,1.173,1.059,1.761c0.47,1.056,1.058,1.998,1.645,2.938&#10;&#9;&#9;c1.056,1.173,1.998,2.464,3.053,3.759c1.176,1.292,2.701,2.464,3.877,3.756c1.292,1.294,2.584,2.703,3.877,3.876&#10;&#9;&#9;c5.167,4.698,11.159,8.576,17.619,11.044c0.47,0,0.822,0,1.291,0c1.528,0.117,3.055,0.117,4.583,0&#10;&#9;&#9;c2.936-0.117,5.988-0.469,8.927-1.057c4.581-0.942,9.162-2.115,13.625-3.759c10.569-3.643,21.024-9.87,26.663-20.088&#10;&#9;&#9;c5.52-9.983,6.695-22.669,1.645-33.123C434.178,433.299,433.826,433.416,433.474,433.534L433.474,433.534z" transform="matrix(0.9999999999999999, 0, 0, 0.9999999999999999, -203.70925407965208, -128.47573741691784)"/><path fill="#7C5D55" d="M369.105,369.397c7.165,6.46,15.153,12.217,23.61,16.915c0-0.352,0.352-0.586,0.705-0.469&#10;&#9;&#9;c2.114,1.174,4.698,1.643,7.047,1.995c3.053,0.589,6.226,0.823,9.396,0.706c4.935-0.234,10.69-0.706,14.566-3.994&#10;&#9;&#9;c-0.586-0.234-1.173-0.352-1.762-0.586c-12.098-3.995-23.139-10.924-33.007-18.913c-4.581-3.759-8.809-7.751-12.921-11.98&#10;&#9;&#9;c-4.346-4.581-8.34-9.516-11.159-15.153c-2.114-4.463-3.64-9.396-3.876-14.331c-0.469,0.707-1.056,1.527-1.525,2.232&#10;&#9;&#9;c-1.059,1.41-2.115,2.938-2.938,4.581c-1.643,2.938-2.818,5.991-3.405,9.281c-0.352,2.701-0.235,5.402,0.234,7.986&#10;&#9;&#9;C355.949,356.242,362.645,363.643,369.105,369.397L369.105,369.397z" transform="matrix(0.9999999999999999, 0, 0, 0.9999999999999999, -203.70925407965208, -128.47573741691784)"/><path fill="#7C5D55" d="M605.675,281.301c-1.411-0.352-2.82-0.704-4.347-1.056c-3.994-1.175-7.871-2.703-11.63-4.7&#10;&#9;&#9;c-4.815-2.466-9.279-5.52-13.625-8.575c-9.045-6.343-16.796-14.095-25.96-20.203c-3.053-2.115-6.226-4.229-9.631-5.872&#10;&#9;&#9;c-1.997-1.059-4.111-1.997-6.226-2.703c-5.05-1.644-10.22-2.466-15.387-2.232c0.117,0.588,0.234,1.176,0.352,1.762&#10;&#9;&#9;c0.824,3.29,1.528,6.578,1.998,9.866c0.117,0.824,0.117,1.528,0.234,2.351c5.521,1.761,11.042,3.406,16.329,5.872&#10;&#9;&#9;c5.754,2.703,11.042,6.108,16.092,9.985c9.631,7.399,19.264,16.326,31.362,19.146c7.166,1.644,14.213,0,21.143-1.997&#10;&#9;&#9;c0.705-0.237,1.059-0.706,1.293-1.175C606.965,281.536,606.261,281.418,605.675,281.301L605.675,281.301z" transform="matrix(0.9999999999999999, 0, 0, 0.9999999999999999, -203.70925407965208, -128.47573741691784)"/><path fill="#7C5D55" d="M531.086,204.833c1.88,5.05,4.109,9.985,6.226,14.918c0.939,2.466,1.995,5.05,2.701,7.634&#10;&#9;&#9;c0.47,1.411,1.057,2.821,1.408,4.347c2.821-12.567,2.584-25.84,0.118-38.527c-1.174-6.225-2.936-12.451-5.52-18.206&#10;&#9;&#9;c-1.293-3.172-2.936-5.991-4.698-8.81c-1.059-1.527-1.998-2.938-3.055-4.346c0-0.118-0.117-0.237-0.234-0.237&#10;&#9;&#9;c0,0.119,0.117,0.237,0.117,0.354c0,1.643,0,3.288-0.117,4.815c0,2.349-0.235,4.581-0.587,6.813c0,0,0,0,0,0.117&#10;&#9;&#9;c-0.235,2.584-0.235,5.285-0.352,7.869c0,2.704,0,5.288,0.235,7.871C527.679,194.848,529.089,199.9,531.086,204.833&#10;&#9;&#9;L531.086,204.833z" transform="matrix(0.9999999999999999, 0, 0, 0.9999999999999999, -203.70925407965208, -128.47573741691784)"/><path fill="#7C5D55" d="M491.03,195.906c-4.346-3.759-9.162-6.93-14.33-9.514c-2.938-1.41-5.991-2.701-9.162-3.642&#10;&#9;&#9;c-1.997-0.586-3.994-1.058-5.991-1.645c1.176,1.762,2.467,3.525,3.995,5.17c2.114,2.466,4.228,5.05,6.108,7.869&#10;&#9;&#9;c1.761,2.821,3.288,5.874,5.05,8.692c0.939,1.411,1.998,2.701,3.171,3.877c0.234,0.234,0.589,0.469,0.824,0.704&#10;&#9;&#9;c0.117-0.469,0.704-0.822,1.173-0.939c1.176,0,2.115,0.939,2.938,1.525c1.057,0.707,2.112,1.411,3.171,2.117&#10;&#9;&#9;c2.114,1.526,4.228,3.171,6.225,4.816c4.347,3.405,8.34,7.165,11.98,11.276c1.997,2.232,3.877,4.581,5.639,7.047&#10;&#9;&#9;c1.174-0.235,2.349-0.352,3.525-0.587c-1.058-3.29-2.468-6.578-3.994-9.75C506.537,212.704,499.604,203.305,491.03,195.906&#10;&#9;&#9;L491.03,195.906z" transform="matrix(0.9999999999999999, 0, 0, 0.9999999999999999, -203.70925407965208, -128.47573741691784)"/><path fill="#7C5D55" d="M512.76,304.088c0,0,0.118,0.117,0.235,0.117c0-0.587,0-1.174,0-1.761&#10;&#9;&#9;C512.291,302.563,512.056,303.619,512.76,304.088L512.76,304.088z" transform="matrix(0.9999999999999999, 0, 0, 0.9999999999999999, -203.70925407965208, -128.47573741691784)"/><path fill="#7C5D55" d="M501.25,247.471c-1.997-1.291-4.112-2.701-5.991-4.227c-1.997,1.173-3.757,2.349-5.637,3.64&#10;&#9;&#9;c-1.527,1.175-3.055,2.349-4.581,3.524c3.288,1.526,6.46,3.406,9.279,5.637c0.705,0.472,1.292,1.059,1.88,1.528&#10;&#9;&#9;c0.235-0.117,0.587-0.352,0.821-0.586c1.176-0.587,2.232-1.293,3.408-1.88c2.466-1.293,4.815-2.232,7.517-2.936&#10;&#9;&#9;c0.234-0.117,0.586-0.236,0.704-0.588c-0.939-0.47-1.877-0.939-2.818-1.409C504.303,249.351,502.777,248.412,501.25,247.471&#10;&#9;&#9;L501.25,247.471z" transform="matrix(0.9999999999999999, 0, 0, 0.9999999999999999, -203.70925407965208, -128.47573741691784)"/><path fill="#7C5D55" d="M480.578,261.919c-3.76-4.581-8.106-8.692-12.569-12.569c-5.05-0.587-10.22-0.47-15.271,0.354&#10;&#9;&#9;c-0.704,0.352-1.41,0.704-2.232,0.939c-1.762,0.586-3.407,1.173-5.05,1.762c-3.525,1.173-7.049,2.349-10.572,3.64&#10;&#9;&#9;C422.08,260.98,409.511,266.97,398,274.489c-5.52,3.757-11.042,7.869-16.092,12.332c-2.467,2.116-4.818,4.346-6.93,6.814&#10;&#9;&#9;c-0.472,0.47-0.823,1.056-1.292,1.525c-1.528,2.586-2.232,5.404-2.349,8.341c0,3.173,0.704,6.226,1.408,9.278&#10;&#9;&#9;c0.471,1.88,1.058,3.643,1.527,5.405c1.997,3.757,4.464,7.399,7.047,10.807c6.578,8.457,14.097,16.091,22.554,22.787&#10;&#9;&#9;c9.631,7.636,20.438,13.625,31.949,17.971c0.94,0.235,1.762,0.587,2.701,0.941c1.292-0.354,2.703-0.706,3.994-1.175&#10;&#9;&#9;c11.63-3.523,21.73-10.101,29.954-19.028c8.575-9.281,15.623-20.439,19.147-32.654c3.64-12.687,3.758-26.194-0.941-38.646&#10;&#9;&#9;C488.329,272.843,484.923,267.089,480.578,261.919L480.578,261.919z" transform="matrix(0.9999999999999999, 0, 0, 0.9999999999999999, -203.70925407965208, -128.47573741691784)"/><path fill="#7C5D55" d="M348.785,376.445c2.349,5.052,6.106,9.164,10.335,12.569c4.464,3.524,9.633,6.225,13.625,10.22&#10;&#9;&#9;c1.645,0.586,3.173,1.408,4.7,1.997c3.054,1.408,5.99,2.701,9.045,3.992c3.522,1.528,7.165,3.056,10.689,4.346&#10;&#9;&#9;c1.057-0.352,2.349-0.117,3.288-0.117c1.527,0,3.053,0,4.581,0c3.29-0.117,6.695-0.234,10.103-0.822&#10;&#9;&#9;c3.053-0.586,6.226-1.41,8.81-3.172c1.056-0.704,1.88-1.643,2.466-2.701c0.235-0.352,0.469-0.821,0.586-1.291&#10;&#9;&#9;c-7.986-0.353-15.974-2.702-23.256-5.874c-10.807-4.463-20.792-10.807-29.954-17.972c-8.81-6.812-18.443-15.153-22.083-26.076&#10;&#9;&#9;c-1.88,3.524-3.759,7.047-4.581,11.041c-0.823,4.581-0.352,9.396,1.646,13.625C348.785,376.328,348.785,376.328,348.785,376.445&#10;&#9;&#9;L348.785,376.445z" transform="matrix(0.9999999999999999, 0, 0, 0.9999999999999999, -203.70925407965208, -128.47573741691784)"/><path fill="#7C5D55" d="M348.313,404.519c1.292,2.349,3.172,4.463,4.346,6.813c2.701,2.349,5.521,4.229,8.692,5.991&#10;&#9;&#9;c8.575,4.699,17.973,8.105,27.604,10.453c5.871,0.826,11.98,0.826,17.619-0.117c3.525-0.587,6.93-1.525,9.866-3.403&#10;&#9;&#9;c1.411-0.824,2.586-1.882,3.642-3.056c0.352-0.469,0.705-0.823,1.057-1.293c-4.464-0.821-8.928-1.997-13.039-3.288&#10;&#9;&#9;c-6.93-2.115-13.625-4.698-20.204-7.519c-3.405-1.526-6.812-3.17-10.217-4.698c-3.056-1.527-6.46-2.936-8.927-5.285&#10;&#9;&#9;c-4.583-2.115-8.693-5.169-12.452-8.34c-3.759-3.173-7.047-6.813-9.396-11.159c-0.237,0.821-0.589,1.645-0.94,2.349&#10;&#9;&#9;c-0.587,1.408-0.939,2.818-1.292,4.346c-0.469,3.054-0.352,6.226,0.352,9.279C345.612,398.645,346.788,401.701,348.313,404.519&#10;&#9;&#9;L348.313,404.519z" transform="matrix(0.9999999999999999, 0, 0, 0.9999999999999999, -203.70925407965208, -128.47573741691784)"/><path fill="#7C5D55" d="M344.556,446.22c2.349,4.228,5.167,7.984,8.458,11.391c5.637,5.638,12.919,10.101,21.025,11.044&#10;&#9;&#9;c10.923,1.29,22.2-2.939,31.244-8.927c8.34-5.641,15.74-13.981,16.329-24.435c-2.466,0.117-4.935,0-7.402-0.117&#10;&#9;&#9;c-13.742-0.938-27.602-3.407-40.406-8.692c-5.287-2.112-10.689-4.346-15.504-7.399c-4.229-2.701-8.811-6.108-10.925-10.807&#10;&#9;&#9;c-0.706-1.059-1.175-2.115-1.762-3.056c-0.587-1.056-1.056-2.231-1.528-3.288l0,0c-1.88,5.874-3.64,11.628-4.463,17.736&#10;&#9;&#9;c-0.469,4.345-0.704,8.691-0.586,12.919c0.94,2.117,1.527,4.347,2.349,6.463C342.204,441.522,343.263,443.986,344.556,446.22&#10;&#9;&#9;L344.556,446.22z" transform="matrix(0.9999999999999999, 0, 0, 0.9999999999999999, -203.70925407965208, -128.47573741691784)"/><path fill="#B6A399" d="M643.145,283.298c-6.461,0.352-13.156,0.352-19.616,0c-5.287-0.353-10.689-0.589-15.857-1.528&#10;&#9;&#9;c-0.234,0.469-0.588,0.938-1.293,1.175c-6.93,1.997-13.977,3.641-21.143,1.997c-12.098-2.82-21.731-11.747-31.362-19.146&#10;&#9;&#9;c-5.05-3.877-10.337-7.282-16.092-9.985c-5.287-2.466-10.807-4.111-16.329-5.872c0.117,1.526,0.235,3.171,0.235,4.699&#10;&#9;&#9;c0,0.234-0.118,0.469-0.352,0.586c-0.117,0.821-0.821,1.528-1.763,1.176c-3.522-1.059-6.813-2.821-10.101-4.346&#10;&#9;&#9;c-0.234-0.119-0.588-0.354-0.823-0.471c-0.117,0.352-0.469,0.471-0.704,0.588c-2.702,0.704-5.051,1.643-7.517,2.936&#10;&#9;&#9;c-1.176,0.587-2.231,1.293-3.408,1.88c-0.234,0.234-0.586,0.469-0.821,0.586c2.467,2.232,4.816,4.581,6.813,7.282&#10;&#9;&#9;c7.988,10.807,10.689,24.317,9.983,37.589c0.117,0,0.234,0,0.352,0.118c5.287,1.643,10.337,3.757,15.506,5.402&#10;&#9;&#9;c5.285,1.763,10.57,3.173,15.975,4.229c10.924,2.232,21.965,3.29,33.125,3.055c12.686-0.237,25.373-2.233,37.47-6.462&#10;&#9;&#9;c5.756-1.995,11.628-4.346,16.68-7.986c2.232-1.528,4.347-3.408,6.109-5.64c1.76-2.231,3.053-4.698,4.346-7.282&#10;&#9;&#9;c0.235-0.469,0.587-0.704,1.056-0.823C643.614,285.765,643.497,284.472,643.145,283.298L643.145,283.298z M550.937,289.524&#10;&#9;&#9;L550.937,289.524c-3.525,1.291-7.753,0.118-10.689-2.231c-3.994-3.525-5.404-10.22-1.176-13.979&#10;&#9;&#9;c0.235-0.234,0.469-0.353,0.706-0.47c0.353-0.352,0.822-0.586,1.292-0.821c1.645-0.706,3.29-0.941,5.052-0.587&#10;&#9;&#9;c4.464,0.587,8.81,3.992,9.631,8.573C556.574,284.12,555.166,288.114,550.937,289.524L550.937,289.524z" transform="matrix(0.9999999999999999, 0, 0, 0.9999999999999999, -203.70925407965208, -128.47573741691784)"/><path fill="#B6A399" d="M531.086,362.937c-1.293-2.584-2.466-5.168-3.524-7.751c-0.118-0.472-0.353-1.058-0.587-1.528&#10;&#9;&#9;c-0.706,2.115-1.645,4.111-2.583,6.109c-0.235,0.469-0.94,0.117-0.823-0.352c0.823-2.352,1.175-4.935,1.41-7.401&#10;&#9;&#9;c0.117-1.763,0.352-3.523,0.47-5.285c-0.118-0.117-0.235-0.117-0.353-0.352c-0.821-0.941-1.527-1.645-2.701-1.528&#10;&#9;&#9;c-0.941,0.117-2.231,0.939-3.173,1.646c-2.349,1.525-4.581,3.875-6.108,5.989c-2.466,3.407-4.464,7.049-5.754,11.161&#10;&#9;&#9;c-0.705,2.349-1.176,4.815-1.528,7.282c-0.234,1.173-0.352,2.232-0.47,3.405c1.056,2.232,2.232,4.581,3.523,6.813&#10;&#9;&#9;c1.176,0.119,2.468,0.941,3.525,1.293c0.352,0.117,0.587,0.234,0.939,0.352c0.236-0.469,0.354-0.821,0.588-1.173&#10;&#9;&#9;c0.469-1.176,1.056-2.232,1.527-3.29c0.47-1.056,0.822-2.232,1.643-2.937c0.352-0.234,1.059-0.234,1.176,0.353&#10;&#9;&#9;c0.118,1.059-0.234,1.997-0.589,2.936c-0.469,1.176-0.939,2.232-1.408,3.408c-0.117,0.469-0.234,0.822-0.469,1.173&#10;&#9;&#9;c0.117,0,0.117,0.118,0.117,0.118c0.704,0,1.408,0,2.115,0c1.525,0.117,3.053,0.117,4.581,0c0.117-1.291,0.587-2.701,0.939-3.64&#10;&#9;&#9;c0.469-1.41,1.175-3.055,2.701-3.525c1.645-0.586,3.172,0.235,4.463,1.528c-0.117-1.645-0.234-3.29,0.118-4.933&#10;&#9;&#9;c0.236-1.41,1.058-2.82,2.351-3.524c0.234-0.117,0.586-0.117,0.938-0.234c-1.056-1.88-1.998-3.877-2.936-5.874&#10;&#9;&#9;C531.203,363.172,531.086,363.055,531.086,362.937L531.086,362.937z" transform="matrix(0.9999999999999999, 0, 0, 0.9999999999999999, -203.70925407965208, -128.47573741691784)"/><path fill="#B6A399" d="M502.66,377.62c-2.232-4.698-3.994-9.513-5.287-14.565c-1.762-0.939-4.581,0.352-5.991,1.175&#10;&#9;&#9;c-2.23,1.174-4.581,2.701-6.458,4.111c-2.821,2.232-5.17,5.285-6.932,8.458c-1.057,1.76-1.995,3.522-2.584,5.519&#10;&#9;&#9;c-0.47,1.411-0.705,3.408-1.88,4.581c0.471,0.586,0.94,1.293,1.528,1.762c0.352,0.353,0.587,0.705,0.941,1.056l0,0l0,0&#10;&#9;&#9;c0.117,0,0.352,0.237,0.469,0.237c0.117,0.117,0.234,0.235,0.469,0.352c0.704,0.353,1.528,0.822,2.349,1.174l0,0l0,0l0,0l0,0&#10;&#9;&#9;c0.117,0,0.352,0.118,0.469,0.118c0.118,0.117,0.352,0.117,0.472,0.234c0.705,0.234,0.47,0.234,1.056,0.471&#10;&#9;&#9;c0.821,0.235,1.527,0.586,2.349,0.822c1.762,0.586,3.642,1.173,5.521,1.645c1.292,0.352,2.701,0.587,3.993,0.939&#10;&#9;&#9;c0.706-2.583,2.701-5.05,5.404-4.815c1.173,0.117,2.349,0.705,3.405,1.527c-0.118-0.94-0.235-1.879-0.235-2.703&#10;&#9;&#9;c0.235-2.466,1.293-5.872,3.525-7.282c-0.234-0.235-0.352-0.469-0.47-0.821C504.068,380.321,503.364,379.029,502.66,377.62&#10;&#9;&#9;L502.66,377.62z" transform="matrix(0.9999999999999999, 0, 0, 0.9999999999999999, -203.70925407965208, -128.47573741691784)"/><path fill="#B6A399" d="M491.265,232.672c0.706,1.409,1.41,2.818,2.234,4.229c0.821,0.821,1.643,1.525,2.583,2.231&#10;&#9;&#9;c0.938,0.704,1.879,1.408,2.818,2.115c1.291,0.939,2.584,1.877,3.994,2.701c4.815,3.171,10.101,5.522,15.036,8.223&#10;&#9;&#9;c-1.293-5.404-3.76-10.572-6.93-15.27c-0.707-1.058-1.411-1.997-2.117-2.938c-1.408-1.995-3.053-3.875-4.581-5.755&#10;&#9;&#9;c-3.522-3.876-7.399-7.518-11.393-10.923c-1.88-1.646-3.875-3.291-5.992-4.698c-1.056-0.823-1.995-1.528-3.053-2.35&#10;&#9;&#9;c-0.235-0.117-0.469-0.234-0.704-0.354c0.469,5.053,2.231,10.22,4.229,14.801C488.446,227.385,489.738,230.088,491.265,232.672&#10;&#9;&#9;L491.265,232.672z" transform="matrix(0.9999999999999999, 0, 0, 0.9999999999999999, -203.70925407965208, -128.47573741691784)"/><path fill="#B6A399" d="M473.999,392.067c-1.763-1.643-3.29-3.757-4.229-5.989c-1.292-2.703-2.583-5.874-2.466-9.044&#10;&#9;&#9;c0-0.234,0.117-0.471,0.353-0.706l-0.587-0.235c-0.588,0.587-1.292,1.293-1.999,1.88c-0.117,0.704-0.235,1.293-0.235,1.997&#10;&#9;&#9;c-0.235,1.998-0.47,4.112-0.47,6.109c0.118,3.522,0.47,7.165,2.232,10.335c1.528,2.703,3.995,4.463,7.165,4.581&#10;&#9;&#9;c2.117,0.119,4.229-0.235,6.343-0.822c1.411-0.469,2.821-0.938,4.111-1.527c0.472-0.235,0.941-0.469,1.293-0.704&#10;&#9;&#9;c-1.293-0.353-2.466-0.821-3.76-1.293C479.049,395.475,476.231,394.182,473.999,392.067L473.999,392.067z" transform="matrix(0.9999999999999999, 0, 0, 0.9999999999999999, -203.70925407965208, -128.47573741691784)"/><path fill="#B6A399" d="M476.466,472.766c0-0.708-0.117-1.412-0.117-2.117c-0.706,0.939-1.293,1.526-1.528,1.765&#10;&#9;&#9;c-2.231,2.464-4.815,4.698-7.634,6.576c-5.287,3.759-11.278,6.223-17.739,6.931c0,1.995,0.12,3.877,0.354,5.754&#10;&#9;&#9;c0.47,4.581,1.409,9.044,2.702,13.508c0.117,0,0.234,0,0.352,0c0.821,0.234,1.645,0.353,2.583,0.588&#10;&#9;&#9;c0.822,0.117,1.41,0.234,2.232,0.234c1.176,0.117,2.232,0.234,3.29,0.234c0.938,0.117,1.879,0.117,2.818,0.117&#10;&#9;&#9;c-0.117-0.821,0.117-1.761,0.235-2.581c0.234-1.413,0.939-2.704,1.88-3.761c1.292-1.646,3.288-2.586,5.402-1.999&#10;&#9;&#9;c0.94,0.353,1.88,0.943,2.703,1.647c0.235-2.703,0.939-5.168,2.115-7.636c0.469-1.055,1.291-2.586,2.466-3.055&#10;&#9;&#9;c0-0.117,0-0.117,0-0.234C477.522,483.454,476.817,478.169,476.466,472.766L476.466,472.766z" transform="matrix(0.9999999999999999, 0, 0, 0.9999999999999999, -203.70925407965208, -128.47573741691784)"/><path fill="#B6A399" d="M446.043,490.033c-0.117,0.117-0.235,0.117-0.235,0.235c-0.704,0.352-1.411,0.822-2.114,1.173&#10;&#9;&#9;c-1.411,0.938-2.936,1.761-4.464,2.465c-2.938,1.528-5.991,2.938-9.281,3.994c-3.171,0.942-6.458,1.646-9.866,1.646&#10;&#9;&#9;c-1.762,0-3.524-0.117-5.285-0.47c-0.823-0.117-1.645-0.234-2.469-0.473c0.472,2.351,0.824,4.702,1.293,7.048&#10;&#9;&#9;c0.352,2.469,0.823,4.934,1.645,7.402c0.353,0.939,0.822,1.877,1.291,2.816c0.234,0.353,0.471,0.708,0.706,1.061&#10;&#9;&#9;c1.057,0.234,2.232,0.703,3.171,1.174c2.115,0.938,4.346,1.643,6.578,1.994c0.118,0,0.353,0.117,0.589,0.117l0,0l0,0l0,0l0,0l0,0&#10;&#9;&#9;l0,0l0,0l0,0c0.234,0,0.469,0,0.587,0c0.586,0.118,1.291,0.239,1.879,0.239c2.231,0.234,4.463,0.353,6.695,0.353&#10;&#9;&#9;c0.469-2.469,2.231-6.111,5.05-5.76c0.587,0.118,1.057,0.354,1.528,0.588c0.117-2.464,0.821-4.933,1.643-6.928&#10;&#9;&#9;c0.472-1.292,1.528-3.995,3.408-3.877c0.117,0.117,0.234,0.117,0.234,0.117c-1.058-4.229-1.997-8.458-2.466-12.804&#10;&#9;&#9;C446.16,491.441,446.043,490.738,446.043,490.033L446.043,490.033z" transform="matrix(0.9999999999999999, 0, 0, 0.9999999999999999, -203.70925407965208, -128.47573741691784)"/><path fill="#B6A399" d="M352.542,475.348c-0.235,0.47-0.939,0.705-1.408,0.353c-1.528-1.644-2.82-3.287-3.995-5.051&#10;&#9;&#9;c-0.706-1.173-1.41-2.346-2.114-3.524c-0.352,0.352-0.704,0.821-1.058,1.178c-0.821,1.056-1.763,1.994-2.701,2.934&#10;&#9;&#9;c-1.88,1.881-3.877,3.524-5.874,5.167c-4.344,3.29-8.927,6.11-13.743,8.575c-0.939,0.591-1.997,1.061-3.053,1.647&#10;&#9;&#9;c0.352,1.056,0.586,2.347,0.821,3.524c0.352,1.643,0.822,3.403,1.293,5.05c6.343-1.881,12.685-3.759,18.91-5.875&#10;&#9;&#9;c5.991-2.112,12.1-4.581,17.15-8.457c-1.173-1.409-2.466-2.699-3.405-4.229C353.013,476.17,352.776,475.818,352.542,475.348&#10;&#9;&#9;L352.542,475.348z" transform="matrix(0.9999999999999999, 0, 0, 0.9999999999999999, -203.70925407965208, -128.47573741691784)"/><path fill="#B6A399" d="M316.834,487.447c-8.458,3.877-17.502,6.811-26.546,9.044c-3.994,1.057-8.106,1.996-12.1,2.704&#10;&#9;&#9;c-0.469,1.524-0.822,3.051-0.822,4.581c6.344-0.47,12.687-0.943,18.913-2.234c7.517-1.409,14.916-3.525,22.318-5.637v-0.118&#10;&#9;&#9;c-0.587-1.764-0.941-3.642-1.294-5.519C317.068,489.325,316.951,488.387,316.834,487.447L316.834,487.447z" transform="matrix(0.9999999999999999, 0, 0, 0.9999999999999999, -203.70925407965208, -128.47573741691784)"/><path fill="#B6A399" d="M243.656,504.479c-0.117,0.234-0.117,0.587-0.235,0.938c9.983-0.117,20.086-0.821,29.952-1.407&#10;&#9;&#9;c0.586,0,1.175-0.117,1.762-0.117c0.118-1.53,0.353-2.938,0.939-4.229c-6.341,1.174-12.804,2.229-19.262,3.051&#10;&#9;&#9;C252.465,503.307,248.001,503.894,243.656,504.479L243.656,504.479z" transform="matrix(0.9999999999999999, 0, 0, 0.9999999999999999, -203.70925407965208, -128.47573741691784)"/><path fill="#B6A399" d="M236.02,505.301c1.645,0,3.407,0.117,5.05,0.117c0-0.234,0.117-0.469,0.117-0.704&#10;&#9;&#9;c-0.939,0.118-1.877,0.235-2.818,0.353C237.664,505.066,236.841,505.184,236.02,505.301L236.02,505.301z" transform="matrix(0.9999999999999999, 0, 0, 0.9999999999999999, -203.70925407965208, -128.47573741691784)"/><path fill="#A48C82" d="M240.835,507.179c0.117-0.47,0.117-1.173,0.234-1.761c-1.643,0-3.406-0.117-5.05-0.117&#10;&#9;&#9;c-3.053,0.235-6.226,0.588-9.279,0.471c-2.466,0-4.933-0.235-7.282-0.588c0.234,0.234,0.586,0.353,0.939,0.469&#10;&#9;&#9;c6.46,3.057,13.742,4.229,20.907,4.581c-0.235-0.938-0.352-1.994-0.469-2.698C240.835,507.417,240.835,507.296,240.835,507.179&#10;&#9;&#9;L240.835,507.179z" transform="matrix(0.9999999999999999, 0, 0, 0.9999999999999999, -203.70925407965208, -128.47573741691784)"/><path fill="#A48C82" d="M275.134,504.362c0-0.117,0-0.352,0-0.469c-0.586,0-1.175,0.117-1.762,0.117&#10;&#9;&#9;c-9.866,0.586-19.968,1.29-29.952,1.407c-0.118,0.588-0.237,1.174-0.237,1.761c0,0.117,0,0.238,0.119,0.356&#10;&#9;&#9;c0,0.939,0.118,1.76,0.47,2.581c0,0.117,0.118,0.117,0.118,0.234c2.701,0.119,5.285,0,7.868,0&#10;&#9;&#9;c5.874-0.117,11.748-0.586,17.737-0.82c2.232-0.117,4.463-0.235,6.695-0.235c-0.352-0.939-0.587-1.76-0.821-2.703&#10;&#9;&#9;C275.252,505.771,275.134,505.066,275.134,504.362L275.134,504.362z" transform="matrix(0.9999999999999999, 0, 0, 0.9999999999999999, -203.70925407965208, -128.47573741691784)"/><path fill="#A48C82" d="M643.614,287.056c-0.469,0.119-0.821,0.354-1.056,0.823c-1.293,2.583-2.586,5.05-4.346,7.282&#10;&#9;&#9;c-1.762,2.232-3.877,4.112-6.109,5.64c-5.052,3.64-10.923,5.991-16.68,7.986c-12.098,4.229-24.784,6.226-37.47,6.462&#10;&#9;&#9;c-11.159,0.235-22.2-0.823-33.125-3.055c-5.405-1.056-10.689-2.466-15.975-4.229c-5.169-1.645-10.22-3.759-15.506-5.402&#10;&#9;&#9;c-0.118-0.118-0.235-0.118-0.352-0.118c0,0.587,0,1.174,0,1.761c-0.47,6.343-1.761,12.569-3.523,18.442&#10;&#9;&#9;c-0.352,1.056-0.588,1.997-0.94,2.936c2.115,0.704,4.347,1.645,6.578,2.114c3.056,0.587,6.226,0.704,9.398,0.941&#10;&#9;&#9;c6.695,0.47,13.391,0.47,20.085,0c14.566-0.941,28.896-3.642,43.343-6.462c6.58-1.291,13.275-2.584,19.853-4.464&#10;&#9;&#9;c1.76-0.469,3.522-1.056,5.168-1.525c0.117-0.234,0.234-0.352,0.469-0.469c2.466-1.41,5.404-2.114,8.105-3.29&#10;&#9;&#9;c2.232-0.939,4.347-2.115,6.344-3.407c2.349-1.643,4.698-3.405,6.813-5.402c1.056-1.056,2.114-2.114,3.053-3.288&#10;&#9;&#9;c2.701-3.055,5.521-6.93,5.874-11.158C643.614,288.466,643.731,287.761,643.614,287.056L643.614,287.056z" transform="matrix(0.9999999999999999, 0, 0, 0.9999999999999999, -203.70925407965208, -128.47573741691784)"/><path fill="#A48C82" d="M525.799,332.631c-0.47,0-0.822,0-1.292,0c-3.407-0.352-6.932-0.821-10.337-1.762&#10;&#9;&#9;c-2.231-0.587-4.581-1.291-6.695-2.467c-2.349,6.226-5.522,12.1-9.279,17.62c0,0.119,0,0.354,0,0.472&#10;&#9;&#9;c0.234,1.408,0.352,2.701,0.469,3.993c0.352,2.702,0.821,5.403,1.525,7.987c0.707,3.173,1.527,6.343,2.586,9.396&#10;&#9;&#9;c0.704,2.114,1.525,4.111,2.466,6.108c0,0.118,0.117,0.235,0.117,0.352c0.118-1.173,0.235-2.232,0.47-3.405&#10;&#9;&#9;c0.352-2.467,0.823-4.933,1.528-7.282c1.291-4.111,3.288-7.753,5.754-11.161c1.527-2.114,3.759-4.463,6.108-5.989&#10;&#9;&#9;c0.941-0.707,2.232-1.528,3.173-1.646c1.174-0.117,1.88,0.587,2.701,1.528c0.117,0.235,0.235,0.235,0.353,0.352&#10;&#9;&#9;c0.117-0.706,0.117-1.411,0.234-2.231c0-0.472,0-0.941,0-1.411c0.118-1.997,0.118-3.994,0.118-5.874c0-1.291,0-2.584,0-3.875&#10;&#9;&#9;C525.799,333.103,525.799,332.866,525.799,332.631L525.799,332.631z" transform="matrix(0.9999999999999999, 0, 0, 0.9999999999999999, -203.70925407965208, -128.47573741691784)"/><path fill="#A48C82" d="M493.851,400.055c-1.293-0.235-2.704-0.586-3.994-0.821c-1.528-0.47-2.938-0.824-4.346-1.293&#10;&#9;&#9;c-0.352,0.235-0.822,0.469-1.293,0.704c-1.291,0.589-2.701,1.058-4.111,1.527c-2.114,0.587-4.226,0.941-6.343,0.822&#10;&#9;&#9;c-3.17-0.118-5.637-1.877-7.165-4.581c-1.762-3.171-2.114-6.813-2.232-10.335c0-1.997,0.235-4.111,0.47-6.109&#10;&#9;&#9;c0-0.704,0.118-1.293,0.235-1.997c-1.056,0.822-2.112,1.645-3.171,2.349c-1.175,0.822-2.466,1.528-3.64,2.232&#10;&#9;&#9;c-0.706,0.353-1.293,0.704-1.999,1.058c0,0.118-0.117,0.118-0.117,0.235c-1.292,3.757-3.64,7.517-6.576,10.335&#10;&#9;&#9;c0.117,0.117,0.117,0.354,0.234,0.471c0.939,2.936,1.174,6.578,0.939,9.631c-0.117,3.053-0.822,6.226-2.702,8.81&#10;&#9;&#9;c0,0,0,0-0.117,0.117c0.117,0.118,0.235,0.352,0.353,0.469c0.352,0.824,0.586,1.998,0.117,2.821&#10;&#9;&#9;c0.117,1.525-0.235,3.288-0.587,4.581c-0.472,1.877-1.176,3.642-2.232,5.285c-0.824,1.056-1.762,2.234-2.82,3.172&#10;&#9;&#9;c2.468,2.229,3.994,5.402,5.287,8.34c1.173,3.052,2.349,5.99,2.936,9.162c1.175,5.402,1.292,11.039-0.117,16.445l0,0&#10;&#9;&#9;c0,0.939-0.117,1.877-0.234,2.7c0,1.173-0.235,2.233-0.353,3.407c1.408-1.291,2.936-2.352,4.346-3.524&#10;&#9;&#9;c1.763-1.526,3.643-3.172,5.403-4.698c5.05-4.347,9.985-8.81,14.566-13.743c1.997-2.234,3.994-4.581,5.874-6.931&#10;&#9;&#9;c2.229-2.7,4.229-5.521,6.224-8.458c3.76-5.402,7.049-11.156,10.22-16.913c2.466-4.815,4.698-9.749,7.165-14.684&#10;&#9;&#9;C500.663,400.876,497.256,400.642,493.851,400.055L493.851,400.055z" transform="matrix(0.9999999999999999, 0, 0, 0.9999999999999999, -203.70925407965208, -128.47573741691784)"/><path fill="#A48C82" d="M469.182,376.563c0.941,1.997,1.411,4.229,2.232,6.343c0,0.117,0.119,0.234,0.119,0.352&#10;&#9;&#9;c0.586,1.176,1.173,2.469,1.995,3.642c1.175-1.173,1.41-3.17,1.88-4.581c0.589-1.997,1.527-3.759,2.584-5.519&#10;&#9;&#9;c1.762-3.173,4.111-6.226,6.932-8.458c1.877-1.41,4.229-2.938,6.458-4.111c1.41-0.824,4.229-2.114,5.991-1.175&#10;&#9;&#9;c0-0.118-0.117-0.235-0.117-0.353c-0.235-0.821-0.47-1.762-0.587-2.584c-0.587-2.466-1.058-5.05-1.292-7.519&#10;&#9;&#9;c-0.118-0.821-0.235-1.643-0.235-2.466c-0.47,0.589-0.939,1.058-1.408,1.645c-4.112,4.933-8.692,9.396-13.745,13.39&#10;&#9;&#9;c-2.466,2.115-5.05,4.112-7.752,5.991c-1.292,0.939-2.701,1.762-3.993,2.584c0.117,0.47,0,1.058-0.353,1.527&#10;&#9;&#9;c-0.234,0.235-0.47,0.47-0.822,0.822l0.587,0.235C468.126,375.976,468.947,375.858,469.182,376.563L469.182,376.563z" transform="matrix(0.9999999999999999, 0, 0, 0.9999999999999999, -203.70925407965208, -128.47573741691784)"/><path fill="#A48C82" d="M468.008,459.493c-2.584,2.347-5.405,4.581-8.105,6.693c-1.643,1.291-3.171,2.469-4.699,3.759&#10;&#9;&#9;c-1.41,1.057-2.818,2.347-4.346,3.291c-0.353,0.116-0.704,0.234-0.939,0.116c-0.117,1.292-0.234,2.583-0.352,3.877&#10;&#9;&#9;c0,1.644-0.12,3.286-0.12,5.05c-0.117,1.174-0.117,2.464,0,3.642c6.461-0.708,12.452-3.172,17.739-6.931&#10;&#9;&#9;c2.819-1.878,5.402-4.112,7.634-6.576c0.235-0.239,0.822-0.825,1.528-1.765c-0.118-1.525-0.118-3.055-0.118-4.463&#10;&#9;&#9;c0-3.29,0.118-6.576,0.586-9.749c0.235-2.234,0.587-4.464,1.057-6.698C474.82,453.266,471.533,456.438,468.008,459.493&#10;&#9;&#9;L468.008,459.493z" transform="matrix(0.9999999999999999, 0, 0, 0.9999999999999999, -203.70925407965208, -128.47573741691784)"/><path fill="#A48C82" d="M416.089,495.552c-1.409,0.354-2.818,0.822-4.112,1.175c0.234,0.821,0.352,1.525,0.352,1.878l0,0&#10;&#9;&#9;c0.824,0.238,1.646,0.355,2.469,0.473c1.761,0.353,3.523,0.47,5.285,0.47c3.408,0,6.695-0.704,9.866-1.646&#10;&#9;&#9;c3.29-1.057,6.343-2.466,9.281-3.994c1.528-0.704,3.053-1.526,4.464-2.465c0.704-0.352,1.41-0.822,2.114-1.173&#10;&#9;&#9;c0-0.118,0.118-0.118,0.235-0.235c-0.117-0.942-0.235-1.882-0.235-2.82c-0.117-3.524,0-6.932,0.352-10.452&#10;&#9;&#9;c0.117-1.179,0.234-2.234,0.352-3.408c-1.645,2.583-3.524,5.051-5.754,7.163C433.943,487.447,425.251,492.497,416.089,495.552&#10;&#9;&#9;L416.089,495.552z" transform="matrix(0.9999999999999999, 0, 0, 0.9999999999999999, -203.70925407965208, -128.47573741691784)"/><path fill="#A48C82" d="M359.354,483.454c-0.821-0.822-1.761-1.761-2.584-2.586c-5.05,3.876-11.159,6.345-17.15,8.457&#10;&#9;&#9;c-6.226,2.116-12.567,3.994-18.91,5.875c0,0.234,0.118,0.352,0.118,0.471c0.352,0.938,0.704,1.877,1.056,2.816&#10;&#9;&#9;c0.352,0.942,0.824,1.998,1.411,2.938c0.352,0.703,0.704,1.29,1.056,1.882c3.407-0.592,6.698-1.296,10.103-1.999&#10;&#9;&#9;c7.399-1.644,14.918-3.173,22.317-4.581c5.521-1.056,10.924-2.23,16.329-3.524c-4.935-2.348-9.398-5.52-13.275-9.396&#10;&#9;&#9;C359.706,483.688,359.472,483.571,359.354,483.454L359.354,483.454z" transform="matrix(0.9999999999999999, 0, 0, 0.9999999999999999, -203.70925407965208, -128.47573741691784)"/><path fill="#A48C82" d="M319.652,499.077c-0.352-0.825-0.587-1.647-0.821-2.351c-0.117-0.353-0.234-0.587-0.234-0.939v0.118&#10;&#9;&#9;c-7.402,2.111-14.801,4.228-22.318,5.637c-6.226,1.291-12.569,1.765-18.913,2.234c0,0.82,0.117,1.524,0.353,2.229&#10;&#9;&#9;c0,0.117,0,0.234,0,0.352c0.352,1.06,0.706,1.998,1.293,2.82c3.522-0.117,7.047-0.352,10.569-0.586&#10;&#9;&#9;c10.926-0.939,21.614-2.703,32.303-4.815c-0.352-0.47-0.586-1.062-0.821-1.53C320.476,501.19,320.004,500.133,319.652,499.077&#10;&#9;&#9;L319.652,499.077z" transform="matrix(0.9999999999999999, 0, 0, 0.9999999999999999, -203.70925407965208, -128.47573741691784)"/><path fill="#351B10" d="M546.122,271.435c-1.763-0.354-3.408-0.119-5.052,0.587c-0.469,0.235-0.939,0.469-1.292,0.821&#10;&#9;&#9;c-0.237,0.117-0.471,0.235-0.706,0.47c-4.229,3.759-2.818,10.455,1.176,13.979c2.936,2.349,7.165,3.522,10.689,2.231&#10;&#9;&#9;c4.229-1.41,5.637-5.404,4.816-9.516C554.931,275.427,550.585,272.022,546.122,271.435L546.122,271.435z M550.23,276.955&#10;&#9;&#9;L550.23,276.955c-0.234,0.821-1.056,1.291-1.997,1.291c-1.174,0-2.229-0.939-2.229-2.23c0-0.471,0.234-0.941,0.469-1.293&#10;&#9;&#9;c0.469-0.586,1.056-0.941,1.76-0.941c1.175,0,2.234,1.058,2.234,2.234C550.468,276.368,550.468,276.721,550.23,276.955&#10;&#9;&#9;L550.23,276.955z" transform="matrix(0.9999999999999999, 0, 0, 0.9999999999999999, -203.70925407965208, -128.47573741691784)"/>



<path fill="#FFFFFF" d="M224.218,148.211c-0.118-0.117-0.352-0.234-0.47-0.353c-0.352-0.234-0.704-0.352-1.173-0.352&#10;&#9;&#9;c-0.237,0-0.471,0-0.706,0.117l-0.587,0.234c-0.117,0.118-0.235,0.235-0.353,0.353c-0.234,0.117-0.352,0.235-0.469,0.469&#10;&#9;&#9;c-0.234,0.471-0.352,1.176-0.234,1.763c0.234,0.586,0.586,1.058,1.056,1.41c0.704,0.353,1.41,0.353,2.114,0.118&#10;&#9;&#9;c0.352-0.118,0.704-0.352,0.941-0.706c0.353-0.469,0.587-0.939,0.587-1.408C224.924,149.151,224.69,148.563,224.218,148.211&#10;&#9;&#9;L224.218,148.211z" transform="matrix(1, 0, 0, 1, -166.67120361328125, -127.31830215454102)"/><path fill="#351B10" d="M647.139,286.704c-0.235-2.232-0.354-4.698-1.879-6.459c-1.293-1.527-3.291-1.058-4.818-0.119&#10;&#9;&#9;c-6.693-0.235-13.391,0.236-20.085,0.119c-4.699,0-9.514-0.471-14.095-1.527c-1.88-0.471-3.759-0.941-5.639-1.645&#10;&#9;&#9;c-10.453-3.407-19.145-10.103-27.603-16.916c-8.576-6.93-16.916-14.329-26.429-19.968c-1.175-0.704-2.469-1.41-3.642-1.997&#10;&#9;&#9;c2.231-5.285,3.055-11.394,3.642-17.033c0.704-6.576,0.586-13.273,0-19.849c-1.293-12.921-4.816-26.194-11.982-37.12&#10;&#9;&#9;c-0.938-1.526-1.997-2.936-3.17-4.346c-1.058-1.408-2.115-2.818-3.642-3.64c-0.704-0.353-1.41-0.117-1.762,0.352&#10;&#9;&#9;c-0.352,0.235-0.704,0.47-0.704,0.941c-0.118,6.341-0.469,12.567-1.528,18.793c-1.173,6.343-2.701,12.569-3.757,18.795&#10;&#9;&#9;c-1.058,6.46-1.645,12.918-1.058,19.382c0.234,3.405,0.941,6.693,1.763,9.983c0.704,2.701,1.645,5.52,2.936,7.988&#10;&#9;&#9;c-1.997-0.118-3.875-0.118-5.872,0c-1.058-3.642-2.466-7.402-3.994-11.042c-4.464-10.455-11.042-19.969-19.617-27.604&#10;&#9;&#9;c-4.581-4.111-9.75-7.636-15.27-10.572c-3.053-1.528-6.226-2.937-9.516-3.993c-3.639-1.058-7.634-2.351-11.393-1.999&#10;&#9;&#9;c-0.47,0-0.939,0.354-1.174,0.823c-0.588,0.235-0.94,0.821-0.823,1.528c0.589,2.936,1.762,5.637,2.821,8.338&#10;&#9;&#9;c1.056,2.703,2.114,5.405,3.287,7.988c2.115,5.167,4.347,10.22,6.931,15.153c4.935,9.514,11.041,18.441,18.794,25.842&#10;&#9;&#9;c1.528,1.525,3.054,2.936,4.699,4.229c-3.76,2.35-7.399,4.933-10.455,7.987c-2.467-0.939-5.05-1.646-7.517-2.115&#10;&#9;&#9;c-1.997-0.47-3.876-0.704-5.874-0.939c-0.117,0-0.235-0.117-0.352-0.234c-0.822-0.587-1.646-0.353-2.114,0.117&#10;&#9;&#9;c-6.931-0.235-13.978,0.704-20.555,2.818c-0.118,0.117-0.235,0.117-0.353,0.117c-3.407,0.941-6.58,1.997-9.868,3.054&#10;&#9;&#9;c-6.578,2.234-13.038,4.817-19.264,7.753c-12.569,5.991-24.08,13.391-34.769,22.2c-2.113,1.645-4.112,3.407-5.989,5.404&#10;&#9;&#9;c-0.941,0.821-1.762,1.645-2.586,2.583c-2.701,2.936-5.403,6.108-7.164,9.631c-0.705,1.293,0,2.466,1.058,2.82&#10;&#9;&#9;c0,0.704,0.117,1.525,0.117,2.349c-3.055,4.227-4.698,9.631-5.05,14.916c-1.058,0.94-2.234,1.88-3.055,3.055&#10;&#9;&#9;c-1.174,1.292-2.231,2.701-3.17,4.229c-1.645,2.467-2.938,5.167-3.877,8.104c-1.527,4.346-1.763,9.164-0.706,13.627&#10;&#9;&#9;c-3.406,3.523-5.52,8.221-6.576,12.919c-1.175,5.052-0.706,10.455,1.173,15.272c0.118,0.234,0.235,0.469,0.353,0.704&#10;&#9;&#9;c-0.822,0.822-1.526,1.763-2.115,2.818c-0.704,1.528-1.292,3.29-1.646,4.933c-0.704,3.407-0.586,6.93,0,10.337&#10;&#9;&#9;c0.237,1.056,0.472,2.114,0.707,3.053c-1.762,2.231-2.819,4.935-3.759,7.519c-0.939,2.936-1.763,5.991-2.232,8.927&#10;&#9;&#9;c-1.173,6.227-1.645,12.685-1.291,19.03c0.353,6.223,1.291,12.334,3.054,18.323c1.175,4.112,2.701,7.871,4.698,11.514&#10;&#9;&#9;c-0.704,0.586-1.411,1.173-1.997,1.759c-1.056,0.939-2.115,1.995-3.171,2.939c-1.997,1.759-3.994,3.403-6.226,5.05&#10;&#9;&#9;c-4.463,3.29-9.279,6.106-14.214,8.574c-10.218,5.05-21.259,8.34-32.3,10.922c-10.338,2.469-20.675,4.11-31.129,5.641&#10;&#9;&#9;c-5.637,0.821-11.276,1.643-16.914,2.229c-3.524,0.353-7.047,0.587-10.689,0.704c-2.232,0.117-4.463,0.234-6.695,0.47l0,0&#10;&#9;&#9;c-0.352-0.118-0.586-0.235-0.94-0.235c-0.939-0.234-1.878-0.234-2.818-0.352c-0.705-0.117-1.528-0.234-2.232-0.352&#10;&#9;&#9;c-0.939-0.117-1.409,0.117-2.115,0.82c-0.586,0.47-0.704,1.648,0,2.234c8.81,7.046,20.674,9.045,31.716,9.396&#10;&#9;&#9;c0.352,0,0.586,0,0.938,0c5.991,0.235,11.982,0,17.971-0.352c5.405-0.353,10.925-0.471,16.329-0.705c0.587,0,1.056,0,1.643,0&#10;&#9;&#9;c15.035-0.587,29.954-2.938,44.754-5.758c0.117,0,0.234,0,0.234,0c7.517-1.526,15.036-2.934,22.552-4.464&#10;&#9;&#9;c7.401-1.408,14.918-2.699,22.2-4.464c3.056-0.587,6.109-1.407,9.046-2.346c9.279,3.172,19.38,3.642,29.013,1.759&#10;&#9;&#9;c0.235,1.058,0.469,2,0.586,2.938c0.469,2.465,0.821,4.815,1.293,7.284c0.47,2.464,1.173,4.933,2.23,7.279&#10;&#9;&#9;c0.471,0.939,0.941,2,1.645,2.938c0.235,0.235,0.472,0.47,0.706,0.704c0.704,1.291,2.115,2.234,3.289,2.703&#10;&#9;&#9;c1.762,0.821,3.524,1.525,5.287,1.996c1.408,0.469,2.701,0.703,4.109,0.82c3.055,0.47,6.226,0.587,9.398,0.704&#10;&#9;&#9;c3.758,0.117,7.517-0.117,11.276-0.704c2.701-0.352,5.874-1.056,7.399-3.523c0.235-0.354,0.352-0.705,0.352-1.058&#10;&#9;&#9;c0.706,0,1.058-0.469,1.175-1.173c0.117-1.057-0.587-1.995-1.058-2.821c-0.234-0.47-0.352-1.056-0.469-1.524&#10;&#9;&#9;c-0.235-0.47-0.47-0.939-0.705-1.526c-0.352-0.825-0.586-1.764-0.938-2.703c0.117,0,0.234,0,0.352,0&#10;&#9;&#9;c1.173,0.234,2.231,0.352,3.288,0.469c1.175,0.117,2.466,0.236,3.642,0.236c3.522,0.234,7.165,0.234,10.806,0&#10;&#9;&#9;c3.288-0.119,7.399-0.354,10.453-2.114c0.941-0.469,1.762-1.177,2.351-2.115c0.705-0.234,1.291-0.939,1.409-1.761&#10;&#9;&#9;c0-2.703-1.056-5.637-1.644-8.223c-0.706-2.586-1.175-5.167-1.762-7.87c-0.941-5.168-1.645-10.336-2.114-15.621&#10;&#9;&#9;c-0.353-5.172-0.353-10.339,0.117-15.507c0.118-1.761,0.352-3.524,0.704-5.285c1.645-1.647,3.055-3.76,4.581-5.636&#10;&#9;&#9;c2.115-2.586,4.111-5.289,6.108-7.989c3.994-5.285,7.869-10.809,11.746-16.328c3.759-5.52,7.401-11.159,10.924-16.916&#10;&#9;&#9;c1.645-2.936,3.407-5.872,5.052-8.809c1.525-2.819,3.054-5.52,4.229-8.458c1.409-0.118,2.818-0.235,4.227-0.353&#10;&#9;&#9;c3.642-0.586,7.401-1.291,10.689-3.053c2.115-1.058,3.995-3.171,3.877-5.521c0-0.117,0.117-0.235,0.117-0.47&#10;&#9;&#9;c0.234-1.997-1.528-4.111-2.466-5.754c-0.822-1.411-1.528-2.703-2.349-4.111c-1.176-2.232-2.349-4.463-3.525-6.695&#10;&#9;&#9;c-0.353-0.588-0.587-1.058-0.822-1.645c0-0.118,0-0.235,0.117-0.352c0.352-1.41,0.705-2.821,1.057-4.346&#10;&#9;&#9;c0.589-2.701,0.941-5.639,1.058-8.458c0.235-2.818,0.235-5.757,0-8.692c-0.117-1.293-0.234-2.583-0.352-3.876&#10;&#9;&#9;c-0.117-0.469-0.117-0.939-0.234-1.526c3.757,0,7.517-0.12,11.275-0.237c14.682-0.821,29.013-3.64,43.462-6.46&#10;&#9;&#9;c6.578-1.291,13.039-2.584,19.497-4.581c3.29-0.939,6.462-2.115,9.633-3.522c2.231-0.941,4.815-2.115,6.813-3.643&#10;&#9;&#9;c1.41-0.821,2.818-1.645,4.229-2.583c4.463-3.055,8.574-6.813,11.862-11.042C645.377,296.806,647.726,291.873,647.139,286.704&#10;&#9;&#9;L647.139,286.704z M523.685,194.496L523.685,194.496c0.234-1.292,0.471-2.466,0.706-3.64c0.939-4.935,1.995-9.868,2.701-14.918&#10;&#9;&#9;c0.117-0.704,0.235-1.527,0.352-2.349c0.352-2.232,0.587-4.464,0.587-6.813c0.117-1.527,0.117-3.172,0.117-4.815&#10;&#9;&#9;c0-0.117-0.117-0.235-0.117-0.354c0.117,0,0.234,0.119,0.234,0.237c1.058,1.407,1.997,2.818,3.055,4.346&#10;&#9;&#9;c1.763,2.818,3.405,5.637,4.698,8.81c2.583,5.754,4.346,11.98,5.52,18.206c2.466,12.687,2.703,25.96-0.118,38.527&#10;&#9;&#9;c0,0.117,0,0.354,0,0.471c-0.352,1.408-0.821,2.936-1.173,4.346c0,0.118,0,0.235,0,0.353c-3.759-1.763-7.519-3.056-11.628-3.76&#10;&#9;&#9;c-0.354-0.117-0.706-0.117-1.058-0.234c0-0.235-0.118-0.352-0.235-0.587C521.335,220.572,521.453,207.064,523.685,194.496&#10;&#9;&#9;L523.685,194.496z M471.533,207.769L471.533,207.769c-2.351-4.698-4.464-9.396-6.462-14.212c-1.056-2.349-2.112-4.815-3.054-7.165&#10;&#9;&#9;c-0.234-0.589-0.469-1.293-0.704-1.879c-0.589-1.293-1.059-2.701-1.763-3.995c0.704,0.235,1.293,0.47,1.997,0.587&#10;&#9;&#9;c1.998,0.587,3.995,1.059,5.991,1.645c3.171,0.941,6.224,2.232,9.162,3.642c5.167,2.583,9.983,5.754,14.33,9.514&#10;&#9;&#9;c8.575,7.399,15.507,16.798,20.322,27.016c1.526,3.173,2.936,6.461,3.994,9.75c-1.176,0.235-2.351,0.352-3.525,0.587&#10;&#9;&#9;c-1.762-2.466-3.642-4.815-5.639-7.047c-3.64-4.111-7.634-7.871-11.98-11.276c-1.997-1.645-4.111-3.29-6.225-4.816&#10;&#9;&#9;c-1.059-0.706-2.115-1.41-3.171-2.117c-0.823-0.586-1.762-1.525-2.938-1.525c-0.469,0.117-1.056,0.47-1.173,0.939&#10;&#9;&#9;c0,0.117,0,0.235,0,0.235c0.117,1.058,0.235,2.114,0.352,3.055c0.821,4.816,1.997,9.514,3.994,14.095&#10;&#9;&#9;c1.056,2.583,2.349,5.167,3.64,7.636C481.633,225.271,476.231,216.696,471.533,207.769L471.533,207.769z M491.265,232.672&#10;&#9;&#9;L491.265,232.672c-1.526-2.583-2.818-5.287-3.875-7.988c-1.997-4.581-3.759-9.749-4.229-14.801c0.235,0.12,0.469,0.237,0.704,0.354&#10;&#9;&#9;c1.058,0.822,1.997,1.526,3.053,2.35c2.117,1.408,4.112,3.053,5.992,4.698c3.994,3.405,7.871,7.047,11.393,10.923&#10;&#9;&#9;c1.528,1.88,3.173,3.76,4.581,5.755c0.706,0.941,1.41,1.88,2.117,2.938c3.17,4.698,5.637,9.866,6.93,15.27&#10;&#9;&#9;c-4.935-2.701-10.22-5.052-15.036-8.223c-1.41-0.823-2.703-1.762-3.994-2.701c-0.939-0.707-1.88-1.411-2.818-2.115&#10;&#9;&#9;c-0.941-0.706-1.763-1.41-2.583-2.231C492.675,235.49,491.97,234.081,491.265,232.672L491.265,232.672z M480.105,252.289&#10;&#9;&#9;L480.105,252.289c0.237,0.586,0.824,1.056,1.528,0.586c6.695,2.936,12.804,7.517,17.267,13.391&#10;&#9;&#9;c12.217,15.857,11.863,37.94,5.991,56.148c-2.231,7.047-5.522,13.86-9.75,19.968c-1.525,2.349-3.288,4.581-5.05,6.695&#10;&#9;&#9;c-3.994,4.816-8.458,9.044-13.273,12.921c-2.349,1.88-4.815,3.757-7.165,5.52c-2.232,1.646-4.583,3.173-6.46,5.17&#10;&#9;&#9;c-1.176,0.352-2.349,0.704-3.525,0.939c-2.466,0.587-5.167,0.47-7.753,0.235c-3.522-0.353-6.93-1.174-10.335-2.115&#10;&#9;&#9;c1.291-0.234,2.466-0.352,3.642-0.704c2.936-0.587,5.754-1.762,8.456-2.936c5.404-2.469,10.337-5.991,14.801-9.868&#10;&#9;&#9;c9.397-7.988,17.033-18.441,22.2-29.6c5.404-11.982,7.636-25.138,5.756-38.294c-0.823-6.578-2.936-13.038-5.991-19.029&#10;&#9;&#9;c-2.936-5.872-7.165-11.159-11.746-15.975c-1.646-1.762-3.408-3.407-5.17-5.05C475.76,250.761,477.992,251.465,480.105,252.289&#10;&#9;&#9;L480.105,252.289z M373.686,295.161L373.686,295.161c0.469-0.469,0.821-1.056,1.292-1.525c2.112-2.468,4.463-4.698,6.93-6.814&#10;&#9;&#9;c5.05-4.463,10.572-8.575,16.092-12.332c11.51-7.519,24.08-13.508,36.883-18.443c3.523-1.291,7.047-2.466,10.572-3.64&#10;&#9;&#9;c1.643-0.589,3.288-1.176,5.05-1.762c0.822-0.235,1.528-0.587,2.232-0.939c5.05-0.824,10.22-0.941,15.271-0.354&#10;&#9;&#9;c4.463,3.876,8.809,7.988,12.569,12.569c4.346,5.17,7.751,10.924,10.1,17.268c4.699,12.452,4.581,25.959,0.941,38.646&#10;&#9;&#9;c-3.524,12.215-10.572,23.374-19.147,32.654c-8.223,8.928-18.324,15.505-29.954,19.028c-1.291,0.469-2.702,0.821-3.994,1.175&#10;&#9;&#9;c-0.939-0.354-1.76-0.706-2.701-0.941c-11.511-4.346-22.318-10.335-31.949-17.971c-8.458-6.695-15.977-14.33-22.554-22.787&#10;&#9;&#9;c-2.583-3.408-5.05-7.05-7.047-10.807c-0.469-1.763-1.056-3.525-1.527-5.405c-0.705-3.053-1.408-6.105-1.408-9.278&#10;&#9;&#9;C371.454,300.565,372.158,297.747,373.686,295.161L373.686,295.161z M364.993,319.83L364.993,319.83&#10;&#9;&#9;c0.235-3.642,1.176-7.284,2.466-10.809c0-0.117,0-0.235,0.118-0.352c2.114,9.868,8.105,18.794,14.331,26.783&#10;&#9;&#9;c8.221,10.335,18.676,19.145,29.717,26.312c3.759,2.466,7.636,4.581,11.511,6.578c1.292,0.587,2.466,1.174,3.759,1.643&#10;&#9;&#9;c4.347,1.997,8.693,3.642,13.273,5.052c4.815,1.409,9.868,2.701,14.918,2.466c1.528,0,3.173-0.234,4.816-0.586&#10;&#9;&#9;c-0.587,0.469-1.174,0.821-1.643,1.173c-2.586,1.645-5.287,2.936-8.223,3.877c-5.64,1.879-11.748,1.645-17.502,0.704&#10;&#9;&#9;c-9.398-1.527-18.089-5.402-26.194-10.218c-2.703-1.645-5.404-3.407-7.871-5.169c-0.705-0.469-1.409-0.939-2.115-1.528&#10;&#9;&#9;c-4.229-3.053-8.34-6.458-12.098-9.983c-4.464-4.229-8.81-8.692-12.334-13.743c-3.288-4.698-5.754-9.985-6.695-15.742&#10;&#9;&#9;C364.876,324.176,364.876,322.06,364.993,319.83L364.993,319.83z M353.835,339.681L353.835,339.681&#10;&#9;&#9;c0.586-3.29,1.762-6.343,3.405-9.281c0.824-1.643,1.88-3.17,2.938-4.581c0.469-0.705,1.056-1.525,1.525-2.232&#10;&#9;&#9;c0.237,4.935,1.763,9.868,3.876,14.331c2.819,5.637,6.813,10.572,11.159,15.153c4.112,4.229,8.34,8.221,12.921,11.98&#10;&#9;&#9;c9.868,7.988,20.91,14.918,33.007,18.913c0.589,0.235,1.176,0.352,1.762,0.586c1.057,0.352,2.232,0.704,3.407,0.939&#10;&#9;&#9;c4.111,1.059,8.338,1.645,12.567,1.645c3.994,0.117,7.872-0.586,11.511-1.762c-0.938,1.527-1.76,2.938-2.818,4.229&#10;&#9;&#9;c-1.645,2.115-3.522,3.877-5.754,5.169c-3.995,2.467-8.93,3.288-13.51,3.288c-0.47-0.235-1.173-0.235-1.643,0&#10;&#9;&#9;c-9.516-0.235-18.795-3.405-27.37-7.517c-1.528-0.706-2.937-1.41-4.347-2.231c-1.291-0.589-2.583-1.293-3.757-1.998&#10;&#9;&#9;c-8.458-4.698-16.446-10.455-23.61-16.915c-6.46-5.754-13.156-13.156-15.036-21.731C353.6,345.083,353.483,342.382,353.835,339.681&#10;&#9;&#9;L353.835,339.681z M347.139,362.585L347.139,362.585c0.822-3.994,2.701-7.517,4.581-11.041&#10;&#9;&#9;c3.64,10.923,13.273,19.264,22.083,26.076c9.162,7.165,19.147,13.508,29.954,17.972c7.282,3.172,15.27,5.521,23.256,5.874&#10;&#9;&#9;c1.059,0.117,2.232,0.117,3.408,0.117c1.762-0.117,3.64-0.235,5.403-0.47c3.993-0.706,7.636-2.114,10.806-4.346&#10;&#9;&#9;c0.234,2.466,0.586,4.933,0.469,7.517c0,2.701-0.821,5.285-2.467,7.399c-2.818,3.407-7.047,4.818-11.275,5.287&#10;&#9;&#9;c-3.171,0.352-6.344,0.234-9.514-0.118c-6.461-0.706-12.921-2.703-18.913-4.581c-0.117-0.117-0.234-0.117-0.352-0.117&#10;&#9;&#9;c-2.467-0.823-4.933-1.645-7.399-2.586c-3.524-1.291-7.167-2.818-10.689-4.346c-3.055-1.291-5.991-2.584-9.045-3.992&#10;&#9;&#9;c-1.527-0.589-3.055-1.411-4.7-1.997c-3.992-3.995-9.162-6.695-13.625-10.22c-4.229-3.405-7.986-7.517-10.335-12.569&#10;&#9;&#9;c0-0.118,0-0.118,0-0.235C346.788,371.981,346.316,367.166,347.139,362.585L347.139,362.585z M344.673,386.313L344.673,386.313&#10;&#9;&#9;c0.352-1.527,0.704-2.938,1.292-4.346c0.352-0.705,0.704-1.528,0.94-2.349c2.349,4.346,5.637,7.986,9.396,11.159&#10;&#9;&#9;c3.759,3.171,7.869,6.226,12.452,8.34c2.467,2.349,5.872,3.757,8.927,5.285c3.405,1.528,6.812,3.172,10.217,4.698&#10;&#9;&#9;c6.578,2.821,13.273,5.404,20.204,7.519c4.111,1.291,8.575,2.466,13.039,3.288c1.175,0.117,2.351,0.353,3.407,0.47&#10;&#9;&#9;c3.995,0.471,7.871,0.471,11.746-0.235c3.173-0.586,6.109-1.879,8.575-3.756c0,1.173,0.117,2.349-0.118,3.522&#10;&#9;&#9;c-0.352,1.646-1.056,3.053-1.879,4.466c-0.822,1.29-1.877,2.347-3.054,3.403c-0.117,0.117-0.352,0.353-0.586,0.47&#10;&#9;&#9;c-0.235,0-0.352,0-0.588,0c-1.761,0.238-3.288,0.942-4.933,1.529c-1.761,0.587-3.523,0.938-5.285,1.292&#10;&#9;&#9;c-3.525,0.704-7.048,0.821-10.572,0.704c-4.463-0.117-8.927-0.469-13.391-1.057c-2.35-0.352-4.699-0.704-7.048-1.173&#10;&#9;&#9;c-2.82-0.469-5.639-1.057-8.457-1.765c-9.631-2.347-19.03-5.754-27.604-10.453c-3.171-1.762-5.991-3.642-8.692-5.991&#10;&#9;&#9;c-1.173-2.349-3.053-4.463-4.346-6.813c-1.526-2.818-2.702-5.874-3.289-8.927C344.321,392.539,344.204,389.366,344.673,386.313&#10;&#9;&#9;L344.673,386.313z M339.621,419.671L339.621,419.671c0.824-6.108,2.583-11.863,4.463-17.736l0,0&#10;&#9;&#9;c0.472,1.056,0.941,2.232,1.528,3.288c0.587,0.941,1.056,1.997,1.762,3.056c2.114,4.698,6.695,8.106,10.925,10.807&#10;&#9;&#9;c4.815,3.053,10.218,5.287,15.504,7.399c12.804,5.285,26.664,7.753,40.406,8.692c2.467,0.117,4.936,0.234,7.402,0.117&#10;&#9;&#9;c-0.589,10.454-7.988,18.793-16.329,24.435c-9.044,5.988-20.321,10.217-31.244,8.927c-8.105-0.944-15.388-5.406-21.025-11.044&#10;&#9;&#9;c-3.29-3.407-6.108-7.163-8.458-11.391c-1.292-2.234-2.352-4.698-3.172-7.167c-0.822-2.116-1.409-4.346-2.349-6.463&#10;&#9;&#9;C338.917,428.362,339.151,424.016,339.621,419.671L339.621,419.671z M220.397,505.652L220.397,505.652&#10;&#9;&#9;c-0.353-0.116-0.705-0.234-0.939-0.469c2.349,0.353,4.815,0.588,7.282,0.588c3.053,0.117,6.226-0.235,9.279-0.471&#10;&#9;&#9;c0.821-0.117,1.645-0.234,2.349-0.234c0.941-0.117,1.879-0.234,2.818-0.353c0,0.235-0.117,0.47-0.117,0.704&#10;&#9;&#9;c-0.117,0.588-0.117,1.291-0.234,1.761c0,0.117,0,0.238,0,0.356c0.117,0.704,0.234,1.76,0.469,2.698&#10;&#9;&#9;C234.14,509.882,226.857,508.709,220.397,505.652L220.397,505.652z M269.496,509.53L269.496,509.53&#10;&#9;&#9;c-5.989,0.234-11.863,0.703-17.737,0.82c-2.583,0-5.167,0.119-7.868,0c0-0.117-0.118-0.117-0.118-0.234&#10;&#9;&#9;c-0.352-0.821-0.47-1.642-0.47-2.581c-0.119-0.118-0.119-0.239-0.119-0.356c0-0.587,0.119-1.173,0.237-1.761&#10;&#9;&#9;c0.118-0.352,0.118-0.704,0.235-0.938c4.346-0.586,8.809-1.173,13.156-1.765c6.458-0.821,12.921-1.877,19.262-3.051&#10;&#9;&#9;c-0.587,1.291-0.822,2.699-0.939,4.229c0,0.117,0,0.352,0,0.469c0,0.704,0.118,1.409,0.235,2.229&#10;&#9;&#9;c0.234,0.943,0.47,1.764,0.821,2.703C273.959,509.295,271.728,509.413,269.496,509.53L269.496,509.53z M289.581,508.592&#10;&#9;&#9;L289.581,508.592c-3.522,0.234-7.047,0.469-10.569,0.586c-0.587-0.822-0.941-1.761-1.293-2.82c0-0.117,0-0.234,0-0.352&#10;&#9;&#9;c-0.235-0.705-0.353-1.409-0.353-2.229c0-1.53,0.353-3.057,0.822-4.581c3.994-0.708,8.105-1.647,12.1-2.704&#10;&#9;&#9;c9.044-2.233,18.089-5.167,26.546-9.044c0.117,0.939,0.234,1.878,0.469,2.821c0.353,1.877,0.707,3.755,1.294,5.519&#10;&#9;&#9;c0,0.353,0.117,0.587,0.234,0.939c0.234,0.703,0.469,1.525,0.821,2.351c0.352,1.056,0.824,2.113,1.411,3.169&#10;&#9;&#9;c0.234,0.469,0.469,1.061,0.821,1.53C311.195,505.889,300.507,507.652,289.581,508.592L289.581,508.592z M356.771,496.727&#10;&#9;&#9;L356.771,496.727c-7.399,1.408-14.918,2.938-22.317,4.581c-3.405,0.703-6.695,1.407-10.103,1.999&#10;&#9;&#9;c-0.352-0.592-0.704-1.179-1.056-1.882c-0.587-0.939-1.059-1.995-1.411-2.938c-0.352-0.939-0.704-1.878-1.056-2.816&#10;&#9;&#9;c0-0.119-0.118-0.236-0.118-0.471c-0.471-1.646-0.941-3.407-1.293-5.05c-0.234-1.177-0.469-2.468-0.821-3.524&#10;&#9;&#9;c1.056-0.586,2.114-1.057,3.053-1.647c4.815-2.464,9.399-5.285,13.743-8.575c1.997-1.643,3.994-3.287,5.874-5.167&#10;&#9;&#9;c0.938-0.939,1.88-1.878,2.701-2.934c0.354-0.357,0.706-0.826,1.058-1.178c0.705,1.178,1.409,2.351,2.114,3.524&#10;&#9;&#9;c1.174,1.765,2.467,3.408,3.995,5.051c0.469,0.352,1.173,0.117,1.408-0.353c0.234,0.47,0.471,0.822,0.824,1.292&#10;&#9;&#9;c0.938,1.53,2.231,2.82,3.405,4.229c0.823,0.825,1.763,1.764,2.584,2.586c0.117,0.117,0.352,0.234,0.469,0.352&#10;&#9;&#9;c3.877,3.876,8.341,7.049,13.275,9.396C367.695,494.496,362.292,495.671,356.771,496.727L356.771,496.727z M379.088,491.207&#10;&#9;&#9;L379.088,491.207c-0.469,0-0.821,0-1.291,0c-6.46-2.468-12.452-6.346-17.619-11.044c-1.293-1.173-2.584-2.582-3.877-3.876&#10;&#9;&#9;c-1.176-1.292-2.701-2.464-3.877-3.756c-1.056-1.294-1.997-2.586-3.053-3.759c-0.586-0.939-1.175-1.882-1.645-2.938&#10;&#9;&#9;c-0.353-0.588-0.705-1.174-1.059-1.761c0-0.352-0.117-0.708-0.469-0.943c-1.056-2.229-1.995-4.581-2.818-6.811&#10;&#9;&#9;c-1.411-3.76-2.466-7.636-3.171-11.631c1.056,2.352,2.231,4.699,3.64,6.815c3.172,5.05,7.165,9.514,11.865,13.155&#10;&#9;&#9;c9.044,6.928,20.555,9.279,31.596,6.693c4.698-1.057,9.279-2.816,13.509-5.05c4.229-2.112,8.223-4.698,11.747-7.753&#10;&#9;&#9;c3.405-3.052,6.46-6.576,8.456-10.688c1.998-3.994,2.821-8.223,2.586-12.687c1.173,0,2.466-0.117,3.64-0.352&#10;&#9;&#9;c2.114-0.234,4.112-0.704,6.226-1.29c0.352-0.119,0.704-0.235,1.058-0.353c5.05,10.453,3.875,23.14-1.645,33.123&#10;&#9;&#9;c-5.639,10.218-16.094,16.445-26.663,20.088c-4.464,1.644-9.045,2.816-13.625,3.759c-2.938,0.588-5.991,0.939-8.927,1.057&#10;&#9;&#9;C382.143,491.324,380.616,491.324,379.088,491.207L379.088,491.207z M408.573,492.614L408.573,492.614&#10;&#9;&#9;c-0.235,0.117-0.352,0.354-0.352,0.47c-1.176,0.235-2.349,0.47-3.525,0.704c-5.404,0.826-10.924,0.943-16.326,0.118&#10;&#9;&#9;c2.466-0.235,5.05-0.587,7.517-1.175c5.639-1.173,11.158-2.933,16.443-5.167c10.572-4.581,19.971-12.099,24.669-22.904&#10;&#9;&#9;c2.467-5.402,3.641-11.395,3.523-17.502c-0.118-2.938-0.705-5.993-1.644-8.81c-0.354-1.412-0.941-2.703-1.645-3.994&#10;&#9;&#9;c-0.235-0.586-0.586-1.174-1.058-1.647c0.706-0.352,1.41-0.586,1.998-0.938c0.823,0,1.762-0.352,2.585-0.821&#10;&#9;&#9;c0.821,2.938,2.467,5.637,3.64,8.457c1.176,2.821,2.115,5.754,2.701,8.809c1.176,5.403,0.824,11.044-0.938,16.329&#10;&#9;&#9;c-3.995,11.274-14.684,19.497-25.021,24.313c-3.523,1.646-7.165,2.82-10.922,3.758&#10;&#9;&#9;C409.746,492.146,409.159,492.028,408.573,492.614L408.573,492.614z M440.758,520.925L440.758,520.925c-0.354,0-0.589,0-0.941,0&#10;&#9;&#9;c0.47-1.412,0.941-2.938,1.997-3.29v-0.117c0.118,0.117,0.118,0.117,0.235,0.117c0.353,0.235,0.587,0.587,0.939,0.822&#10;&#9;&#9;c0.117,0.234,0.354,0.47,0.588,0.704c0.118,0.587,0.235,1.056,0.469,1.647C442.87,520.809,441.813,520.809,440.758,520.925&#10;&#9;&#9;L440.758,520.925z M443.342,515.637L443.342,515.637c-0.472-0.234-0.941-0.47-1.528-0.588c-2.818-0.352-4.581,3.291-5.05,5.76&#10;&#9;&#9;c-2.232,0-4.464-0.118-6.695-0.353c-0.589,0-1.293-0.121-1.879-0.239c-0.118,0-0.353,0-0.587,0l0,0l0,0l0,0l0,0l0,0l0,0l0,0&#10;&#9;&#9;c-0.237,0-0.472-0.117-0.589-0.117c-2.231-0.352-4.463-1.056-6.578-1.994c-0.939-0.471-2.114-0.939-3.171-1.174&#10;&#9;&#9;c-0.234-0.353-0.471-0.708-0.706-1.061c-0.469-0.939-0.938-1.877-1.291-2.816c-0.822-2.469-1.293-4.934-1.645-7.402&#10;&#9;&#9;c-0.469-2.346-0.821-4.697-1.293-7.048l0,0c0-0.353-0.117-1.057-0.352-1.878c1.293-0.353,2.703-0.821,4.112-1.175&#10;&#9;&#9;c9.162-3.055,17.854-8.104,24.668-15.037c2.23-2.111,4.109-4.58,5.754-7.163c-0.118,1.174-0.235,2.229-0.352,3.408&#10;&#9;&#9;c-0.352,3.52-0.469,6.928-0.352,10.452c0,0.938,0.118,1.878,0.235,2.82c0,0.705,0.117,1.408,0.117,2.112&#10;&#9;&#9;c0.469,4.346,1.408,8.574,2.466,12.804c0,0-0.117,0-0.234-0.117c-1.88-0.118-2.936,2.585-3.408,3.877&#10;&#9;&#9;C444.163,510.704,443.459,513.173,443.342,515.637L443.342,515.637z M453.442,518.105L453.442,518.105c0,0,0,0.116-0.117,0.116l0,0&#10;&#9;&#9;v0.118l0,0c-0.118,0.117-0.235,0.234-0.353,0.352c0,0.118-0.117,0.118-0.117,0.118s0,0-0.118,0.117&#10;&#9;&#9;c-0.234,0.117-0.47,0.234-0.587,0.352c-0.117,0-0.117,0-0.117,0l0,0l0,0c-0.12,0.117-0.237,0.117-0.471,0.117&#10;&#9;&#9;c-0.235,0.235-0.587,0.353-0.938,0.353c-1.176,0.352-2.349,0.587-3.525,0.822c-0.235-1.644-0.821-3.521-0.586-4.934&#10;&#9;&#9;c0.117-1.525,0.469-3.052,0.939-4.464c0.236-0.822,0.471-1.525,0.706-2.229c0.118-0.352,0.587-0.939,0.704-1.057&#10;&#9;&#9;c0.234,0.234,0.469,0.588,0.94,0.822c0.47,1.761,1.057,3.406,1.643,5.167c0.235,0.47,0.469,1.056,0.706,1.526&#10;&#9;&#9;c0.235,0.586,0.705,1.06,1.057,1.646c0.118,0.234,0.235,0.352,0.352,0.586C453.56,517.752,453.442,517.987,453.442,518.105&#10;&#9;&#9;L453.442,518.105z M471.062,506.357L471.062,506.357c-1.526,0-3.053,0-4.464,0c0-0.352,0-0.705,0.117-1.057&#10;&#9;&#9;c0.118-1.056,0.472-2.112,1.059-3.055c0.704-1.174,1.762-1.878,3.171-1.408c1.292,0.47,2.231,1.76,3.055,2.82&#10;&#9;&#9;c0,0.118,0.118,0.235,0.118,0.353l0,0c0.117,0.703,0.234,1.407,0.469,2.112C473.528,506.24,472.354,506.24,471.062,506.357&#10;&#9;&#9;L471.062,506.357z M473.999,499.664L473.999,499.664c-0.823-0.704-1.763-1.295-2.703-1.647c-2.114-0.587-4.109,0.353-5.402,1.999&#10;&#9;&#9;c-0.941,1.057-1.646,2.348-1.88,3.761c-0.118,0.82-0.352,1.76-0.235,2.581c-0.939,0-1.88,0-2.818-0.117&#10;&#9;&#9;c-1.058,0-2.114-0.117-3.29-0.234c-0.822,0-1.41-0.117-2.232-0.234c-0.939-0.235-1.762-0.354-2.583-0.588c-0.118,0-0.235,0-0.352,0&#10;&#9;&#9;c-1.293-4.464-2.232-8.927-2.702-13.508c-0.234-1.877-0.354-3.759-0.354-5.754c-0.117-1.177-0.117-2.467,0-3.642&#10;&#9;&#9;c0-1.765,0.12-3.407,0.12-5.05c0.117-1.294,0.234-2.585,0.352-3.877c0.235,0.118,0.587,0,0.939-0.116&#10;&#9;&#9;c1.527-0.944,2.936-2.234,4.346-3.291c1.528-1.29,3.056-2.468,4.699-3.759c2.701-2.112,5.521-4.346,8.105-6.693&#10;&#9;&#9;c3.524-3.055,6.812-6.228,9.866-9.753c-0.47,2.234-0.822,4.464-1.057,6.698c-0.469,3.172-0.586,6.459-0.586,9.749&#10;&#9;&#9;c0,1.408,0,2.938,0.118,4.463c0,0.705,0.117,1.409,0.117,2.117c0.352,5.403,1.056,10.688,2.114,15.973c0,0.117,0,0.117,0,0.234&#10;&#9;&#9;c-1.175,0.469-1.997,2-2.466,3.055C474.938,494.496,474.234,496.961,473.999,499.664L473.999,499.664z M481.281,500.955&#10;&#9;&#9;L481.281,500.955c0.235,1.056,0.469,1.994,0.704,3.056c-0.118,0-0.352,0.234-0.469,0.352c-0.118,0-0.586,0.234-0.586,0.234l0,0&#10;&#9;&#9;c-0.235,0.117-0.47,0.117-0.705,0.235c-0.824,0.352-1.645,0.586-2.469,0.82c-0.352-1.994-0.939-4.11-0.704-5.988&#10;&#9;&#9;c0.234-1.647,0.704-3.29,1.174-4.933c0.237-0.708,0.589-1.764,0.941-2.586c0.352,1.525,0.704,2.938,1.058,4.464&#10;&#9;&#9;C480.578,498.017,480.93,499.547,481.281,500.955L481.281,500.955z M480.46,440.697L480.46,440.697&#10;&#9;&#9;c-1.88,2.35-3.877,4.697-5.874,6.931c-4.581,4.933-9.516,9.396-14.566,13.743c-1.76,1.526-3.64,3.172-5.403,4.698&#10;&#9;&#9;c-1.41,1.173-2.938,2.234-4.346,3.524c0.117-1.174,0.353-2.234,0.353-3.407c0.117-0.822,0.234-1.76,0.234-2.7l0,0&#10;&#9;&#9;c1.41-5.407,1.292-11.043,0.117-16.445c-0.587-3.172-1.763-6.11-2.936-9.162c-1.293-2.938-2.818-6.11-5.287-8.34&#10;&#9;&#9;c1.058-0.938,1.997-2.117,2.82-3.172c1.056-1.643,1.76-3.408,2.232-5.285c0.352-1.293,0.704-3.055,0.587-4.581&#10;&#9;&#9;c0.469-0.824,0.234-1.998-0.117-2.821c-0.118-0.117-0.235-0.352-0.353-0.469c0.117-0.117,0.117-0.117,0.117-0.117&#10;&#9;&#9;c1.879-2.583,2.584-5.756,2.702-8.81c0.234-3.053,0-6.696-0.939-9.631c-0.117-0.117-0.117-0.354-0.234-0.471&#10;&#9;&#9;c2.936-2.818,5.285-6.578,6.576-10.335c0-0.117,0.117-0.117,0.117-0.235c0.706-0.354,1.293-0.706,1.999-1.058&#10;&#9;&#9;c1.173-0.704,2.464-1.41,3.64-2.232c1.059-0.704,2.115-1.527,3.171-2.349c0.707-0.587,1.41-1.293,1.999-1.88&#10;&#9;&#9;c0.352-0.352,0.587-0.586,0.822-0.822c0.353-0.469,0.47-1.058,0.353-1.527c1.292-0.822,2.701-1.645,3.993-2.584&#10;&#9;&#9;c2.702-1.879,5.286-3.876,7.752-5.991c5.052-3.994,9.633-8.457,13.745-13.39c0.469-0.587,0.938-1.056,1.408-1.645&#10;&#9;&#9;c0,0.823,0.117,1.645,0.235,2.466c0.234,2.468,0.706,5.052,1.292,7.519c0.117,0.822,0.352,1.763,0.587,2.584&#10;&#9;&#9;c0,0.117,0.117,0.235,0.117,0.353c1.293,5.052,3.055,9.867,5.287,14.565c0.704,1.409,1.408,2.701,2.114,3.995&#10;&#9;&#9;c0.118,0.352,0.235,0.586,0.47,0.821c-2.231,1.41-3.29,4.815-3.525,7.282c0,0.824,0.117,1.763,0.235,2.703&#10;&#9;&#9;c-1.056-0.823-2.231-1.41-3.405-1.527c-2.703-0.234-4.698,2.232-5.404,4.815c-1.292-0.352-2.701-0.587-3.993-0.939&#10;&#9;&#9;c-1.88-0.471-3.759-1.058-5.521-1.645c-0.822-0.235-1.528-0.587-2.349-0.822c-0.586-0.237-0.352-0.237-1.056-0.471&#10;&#9;&#9;c-0.12-0.117-0.354-0.117-0.472-0.234c-0.118,0-0.352-0.118-0.469-0.118l0,0l0,0l0,0l0,0c-0.821-0.352-1.645-0.821-2.349-1.174&#10;&#9;&#9;c-0.235-0.117-0.352-0.235-0.469-0.352c-0.117,0-0.352-0.237-0.469-0.237l0,0l0,0c-0.354-0.352-0.589-0.704-0.941-1.056&#10;&#9;&#9;c-0.587-0.469-1.057-1.176-1.528-1.762c-0.822-1.173-1.409-2.466-1.995-3.642c0-0.117-0.119-0.234-0.119-0.352&#10;&#9;&#9;c-0.821-2.115-1.291-4.347-2.232-6.343c-0.235-0.705-1.056-0.587-1.525-0.235c-0.235,0.235-0.353,0.472-0.353,0.706&#10;&#9;&#9;c-0.117,3.17,1.174,6.341,2.466,9.044c0.939,2.232,2.466,4.346,4.229,5.989c2.232,2.115,5.05,3.408,7.751,4.581&#10;&#9;&#9;c1.293,0.472,2.466,0.94,3.76,1.293c1.408,0.469,2.818,0.823,4.346,1.293c1.291,0.235,2.701,0.586,3.994,0.821&#10;&#9;&#9;c3.405,0.587,6.813,0.821,10.217,0.587c-2.466,4.935-4.698,9.868-7.165,14.684c-3.17,5.756-6.46,11.511-10.22,16.913&#10;&#9;&#9;C484.688,435.176,482.689,437.997,480.46,440.697L480.46,440.697z M512.056,393.712L512.056,393.712&#10;&#9;&#9;c-0.352,0.47-0.821,0.824-1.175,1.176c0.237-0.235-0.469,0.234-0.587,0.234c-0.117,0.117-0.822,0.47-0.704,0.47&#10;&#9;&#9;c-0.589,0.235-1.175,0.352-1.762,0.469c-0.352,0.117-0.705,0.235-1.174,0.235c0,0-0.117,0.117-0.237,0.117&#10;&#9;&#9;c-0.469-0.822-1.056-1.644-1.291-2.584c-0.47-1.174-0.707-2.466-0.707-3.875c-0.117-1.176,0.117-2.351,0.589-3.524&#10;&#9;&#9;c0.234-0.704,0.821-1.411,1.291-2.114c1.293,2.114,2.584,3.994,4.112,5.874c0.706,0.821,1.41,1.76,2.231,2.466l0,0&#10;&#9;&#9;c-0.117,0.47-0.117,0.353-0.234,0.587c-0.118,0.117-0.235,0.235-0.235,0.352C512.056,393.595,512.056,393.712,512.056,393.712&#10;&#9;&#9;L512.056,393.712L512.056,393.712z M502.777,396.648L502.777,396.648c-0.824,0-1.528,0-2.349-0.117&#10;&#9;&#9;c-1.293,0-2.701-0.117-3.994-0.353c0.352-1.291,0.939-2.466,2.232-2.466C500.311,393.712,501.602,395.239,502.777,396.648&#10;&#9;&#9;L502.777,396.648z M517.106,394.653L517.106,394.653c-1.643,2.936-3.405,5.872-5.167,8.81c-3.29,5.637-6.93,11.159-10.572,16.561&#10;&#9;&#9;c-3.64,5.521-7.517,10.808-11.394,16.092c-1.997,2.703-3.994,5.406-5.874,8.105c-0.469,0.586-0.821,1.173-1.291,1.76&#10;&#9;&#9;c0.235-0.939,0.353-1.76,0.587-2.7c7.634-9.63,14.094-20.203,19.381-31.361c1.76-3.759,3.522-7.636,4.815-11.631&#10;&#9;&#9;c1.879-0.352,3.642-0.938,5.167-2.114c1.176-0.822,1.998-1.879,2.467-3.288c0.119-0.469,0.236-0.823,0.236-1.293&#10;&#9;&#9;c0.939-0.235,1.408-1.41,0.705-2.584c-0.235-0.469-0.586-0.821-0.941-1.175c0.354-0.587,0.472-1.291,0.706-1.997&#10;&#9;&#9;c0.469,0,1.056,0.119,1.643,0.119c0.941,0,1.997,0.118,2.938,0.118C519.338,390.189,518.282,392.421,517.106,394.653&#10;&#9;&#9;L517.106,394.653z M528.266,382.906L528.266,382.906c-0.117,0-0.117,0-0.117,0l0,0c-0.117,0-0.117,0-0.235,0.117&#10;&#9;&#9;c-0.235,0-0.47,0-0.705,0c-0.469,0.117-0.94,0.117-1.41,0.117l0,0c0.117-0.47,0.117-1.056,0.234-1.525&#10;&#9;&#9;c0.235-0.941,0.469-2.115,1.175-2.82c0.47-0.47,0.939-0.235,1.528,0.234c0.938,0.823,1.761,1.762,2.466,2.586&#10;&#9;&#9;c0.118,0.352,0.118,0.586,0.235,0.704C530.38,382.553,529.323,382.788,528.266,382.906L528.266,382.906z M535.195,371.277&#10;&#9;&#9;L535.195,371.277c0.589,1.057,1.176,1.998,1.762,3.054c0.707,1.176,1.293,2.938,2.349,4.111c0,0.117,0,0.117,0,0.117&#10;&#9;&#9;c0,0.117-0.117,0.117-0.117,0.235c-0.118,0.117-0.235,0.234-0.235,0.471l0,0c-0.117,0-0.352,0.352-0.469,0.469h-0.117l0,0l0,0&#10;&#9;&#9;c0,0.117-0.234,0.234-0.234,0.234c-0.235,0.235-0.587,0.352-0.822,0.47c-0.237,0.235-0.589,0.352-0.94,0.469&#10;&#9;&#9;c0,0-0.118,0.118-0.235,0.118l0,0l0,0l0,0l0,0l0,0c-0.117,0.117-0.234,0.117-0.352,0.117c-0.471,0.236-0.941,0.354-1.528,0.589&#10;&#9;&#9;c0.117-1.058-0.235-2.232-0.352-3.173c-0.234-1.291-0.352-2.583-0.234-3.876c0-1.056,0.117-2.113,0.704-2.936&#10;&#9;&#9;C534.491,371.512,534.843,371.277,535.195,371.277L535.195,371.277z M534.139,369.046L534.139,369.046&#10;&#9;&#9;c-0.352,0.117-0.704,0.117-0.938,0.234c-1.293,0.704-2.115,2.115-2.351,3.524c-0.352,1.643-0.235,3.288-0.118,4.933&#10;&#9;&#9;c-1.292-1.292-2.818-2.114-4.463-1.528c-1.526,0.47-2.232,2.115-2.701,3.525c-0.352,0.939-0.822,2.349-0.939,3.64&#10;&#9;&#9;c-1.528,0.117-3.056,0.117-4.581,0c-0.707,0-1.411,0-2.115,0c0,0,0-0.118-0.117-0.118c0.235-0.352,0.352-0.704,0.469-1.173&#10;&#9;&#9;c0.469-1.176,0.939-2.232,1.408-3.408c0.354-0.938,0.707-1.877,0.589-2.936c-0.117-0.587-0.824-0.587-1.176-0.353&#10;&#9;&#9;c-0.821,0.705-1.173,1.88-1.643,2.937c-0.471,1.058-1.058,2.114-1.527,3.29c-0.235,0.352-0.352,0.704-0.588,1.173&#10;&#9;&#9;c-0.352-0.117-0.587-0.234-0.939-0.352c-1.057-0.352-2.349-1.174-3.525-1.293c-1.291-2.231-2.467-4.581-3.523-6.813&#10;&#9;&#9;c0-0.117-0.117-0.234-0.117-0.352c-0.941-1.997-1.762-3.994-2.466-6.108c-1.059-3.054-1.879-6.224-2.586-9.396&#10;&#9;&#9;c-0.704-2.584-1.174-5.285-1.525-7.987c-0.117-1.292-0.235-2.585-0.469-3.993c0-0.118,0-0.353,0-0.472&#10;&#9;&#9;c3.757-5.52,6.93-11.394,9.279-17.62c2.114,1.176,4.463,1.879,6.695,2.467c3.406,0.941,6.93,1.41,10.337,1.762&#10;&#9;&#9;c0.47,0,0.822,0,1.292,0c0,0.234,0,0.472,0,0.706c0,1.291,0,2.584,0,3.875c0,1.88,0,3.876-0.118,5.874c0,0.469,0,0.939,0,1.411&#10;&#9;&#9;c-0.117,0.821-0.117,1.525-0.234,2.231c-0.118,1.762-0.353,3.522-0.47,5.285c-0.235,2.466-0.587,5.05-1.41,7.401&#10;&#9;&#9;c-0.117,0.469,0.588,0.821,0.823,0.352c0.939-1.998,1.878-3.994,2.583-6.109c0.235,0.47,0.47,1.056,0.587,1.528&#10;&#9;&#9;c1.058,2.583,2.231,5.167,3.524,7.751c0,0.118,0.117,0.235,0.117,0.235C532.142,365.168,533.083,367.166,534.139,369.046&#10;&#9;&#9;L534.139,369.046z M533.904,346.728L533.904,346.728c-0.117,2.701-0.469,5.52-1.056,8.223c-0.12,0.822-0.354,1.526-0.471,2.349&#10;&#9;&#9;c-0.47-0.94-1.056-1.997-1.527-2.938c-0.47-1.056-0.939-2.115-1.409-3.171c-0.352-0.823-0.586-1.645-1.058-2.349&#10;&#9;&#9;c-0.117-0.117-0.117-0.235-0.234-0.235c0.234-1.058,0.354-2.114,0.471-3.29c0.352-2.583,0.469-5.167,0.469-7.751&#10;&#9;&#9;c0.117-1.292,0.117-2.468,0.117-3.759c-0.117-0.352,0-0.586,0-0.941c1.409,0.12,2.818,0.12,4.347,0.12&#10;&#9;&#9;c0,0.47,0.117,0.939,0.117,1.409c0.117,1.292,0.234,2.701,0.352,3.994C534.139,341.206,534.139,343.908,533.904,346.728&#10;&#9;&#9;L533.904,346.728z M627.875,309.021L627.875,309.021c-1.997,1.292-4.112,2.468-6.344,3.407c-2.701,1.176-5.639,1.88-8.105,3.29&#10;&#9;&#9;c-0.235,0.117-0.352,0.235-0.469,0.469c-1.646,0.47-3.408,1.056-5.168,1.525c-6.578,1.88-13.273,3.173-19.853,4.464&#10;&#9;&#9;c-14.447,2.82-28.776,5.521-43.343,6.462c-6.694,0.47-13.39,0.47-20.085,0c-3.172-0.237-6.343-0.354-9.398-0.941&#10;&#9;&#9;c-2.231-0.469-4.463-1.41-6.578-2.114c0.352-0.939,0.589-1.88,0.94-2.936c1.763-5.874,3.054-12.099,3.523-18.442&#10;&#9;&#9;c-0.117,0-0.235-0.117-0.235-0.117c-0.704-0.47-0.469-1.526,0.235-1.644c0.706-13.272-1.995-26.783-9.983-37.589&#10;&#9;&#9;c-1.997-2.701-4.346-5.05-6.813-7.282c-0.588-0.469-1.175-1.056-1.88-1.528c-2.818-2.231-5.991-4.111-9.279-5.637&#10;&#9;&#9;c1.526-1.175,3.054-2.349,4.581-3.524c1.88-1.292,3.641-2.467,5.637-3.64c1.879,1.525,3.994,2.936,5.991,4.227&#10;&#9;&#9;c1.528,0.941,3.053,1.88,4.581,2.703c0.941,0.47,1.879,0.939,2.818,1.409c0.235,0.117,0.589,0.352,0.823,0.471&#10;&#9;&#9;c3.288,1.525,6.579,3.288,10.101,4.346c0.941,0.352,1.646-0.354,1.763-1.176c0.234-0.117,0.352-0.352,0.352-0.586&#10;&#9;&#9;c0-1.528-0.118-3.173-0.235-4.699c-0.117-0.823-0.117-1.527-0.234-2.351c-0.469-3.288-1.174-6.576-1.998-9.866&#10;&#9;&#9;c-0.117-0.586-0.234-1.174-0.352-1.762c5.167-0.234,10.337,0.588,15.387,2.232c2.115,0.706,4.229,1.645,6.226,2.703&#10;&#9;&#9;c3.405,1.643,6.578,3.757,9.631,5.872c9.164,6.108,16.915,13.859,25.96,20.203c4.346,3.055,8.81,6.109,13.625,8.575&#10;&#9;&#9;c3.759,1.997,7.636,3.525,11.63,4.7c1.526,0.352,2.936,0.705,4.347,1.056c0.586,0.118,1.29,0.235,1.997,0.47&#10;&#9;&#9;c5.168,0.938,10.57,1.175,15.857,1.528c6.46,0.352,13.155,0.352,19.616,0c0.352,1.173,0.469,2.466,0.469,3.757&#10;&#9;&#9;c0.117,0.706,0,1.41,0,2.117c-0.352,4.229-3.172,8.103-5.874,11.158c-0.939,1.174-1.997,2.232-3.053,3.288&#10;&#9;&#9;C632.573,305.616,630.224,307.378,627.875,309.021L627.875,309.021z" transform="matrix(0.9999999999999999, 0, 0, 0.9999999999999999, -203.70925407965208, -128.47573741691784)"/></svg>